<svg xmlns="http://www.w3.org/2000/svg" viewBox="0 0 100 100"><defs><style>.cls-1{fill:#064694;}.cls-2{fill:#fff;}</style></defs><title>afc</title><g id="bg"><path class="cls-1" d="M50,100h0A50,50,0,1,0,0,50a50,50,0,0,0,50,50"/></g><g id="afc"><path class="cls-2" d="M56,37.33a6,6,0,1,0-6,6A6,6,0,0,0,56,37.33Zm-9.33,0A3.33,3.33,0,1,1,50,40.67,3.33,3.33,0,0,1,46.67,37.33Z"/><path class="cls-2" d="M59.23,47.78a15.47,15.47,0,0,0-18.46,0,3.76,3.76,0,0,0-1.44,3V64.67A1.34,1.34,0,0,0,40.67,66h2.66V80.67A1.34,1.34,0,0,0,44.67,82H55.33a1.34,1.34,0,0,0,1.34-1.33V66h2.66a1.34,1.34,0,0,0,1.34-1.33V50.81A3.76,3.76,0,0,0,59.23,47.78ZM58,63.33H55.33A1.34,1.34,0,0,0,54,64.67V79.33H46V64.67a1.34,1.34,0,0,0-1.33-1.34H42V50.81a1.1,1.1,0,0,1,.36-.88,12.75,12.75,0,0,1,15.29,0,1.12,1.12,0,0,1,.35.88Z"/><circle class="cls-2" cx="42" cy="23.33" r="1.33"/><circle class="cls-2" cx="50" cy="23.33" r="1.33"/><circle class="cls-2" cx="58" cy="23.33" r="1.33"/><path class="cls-2" d="M22,51.33A1.34,1.34,0,0,0,20.67,50H19.33a1.34,1.34,0,0,0,0,2.67h1.34A1.34,1.34,0,0,0,22,51.33Z"/><path class="cls-2" d="M21.24,54.9l-1.15.67a1.34,1.34,0,0,0-.48,1.82,1.32,1.32,0,0,0,1.15.66,1.25,1.25,0,0,0,.67-.18l1.16-.67a1.33,1.33,0,1,0-1.35-2.3Z"/><path class="cls-2" d="M22.59,45.47l-1.16-.68a1.34,1.34,0,0,0-1.34,2.31l1.15.67a1.41,1.41,0,0,0,.68.18,1.33,1.33,0,0,0,.67-2.48Z"/><path class="cls-2" d="M80.67,50H79.33a1.34,1.34,0,0,0,0,2.67h1.34a1.34,1.34,0,0,0,0-2.67Z"/><path class="cls-2" d="M78.11,48a1.35,1.35,0,0,0,.67-.18l1.16-.67a1.34,1.34,0,1,0-1.35-2.31l-1.15.68A1.33,1.33,0,0,0,78.11,48Z"/><path class="cls-2" d="M79.94,55.57l-1.16-.67a1.33,1.33,0,0,0-1.34,2.3l1.15.67a1.29,1.29,0,0,0,.68.18,1.33,1.33,0,0,0,.67-2.48Z"/><path class="cls-2" d="M74,44.32a1.35,1.35,0,0,0,.67.18,1.31,1.31,0,0,0,1.15-.67l.67-1.17a1.33,1.33,0,1,0-2.32-1.32l-.2.35V23.33A5.33,5.33,0,0,0,68.67,18H31.33A5.33,5.33,0,0,0,26,23.33V41.64l-.17-.3a1.35,1.35,0,0,0-1.82-.5,1.32,1.32,0,0,0-.5,1.82l.66,1.17a1.34,1.34,0,0,0,1.16.67,1.28,1.28,0,0,0,.66-.18h0v3.27a4,4,0,0,0,0,7.54v3.22h0a1.34,1.34,0,0,0-1.82.5L23.51,60a1.31,1.31,0,0,0,.5,1.81,1.28,1.28,0,0,0,.66.18,1.34,1.34,0,0,0,1.16-.67L26,61V80.67A1.34,1.34,0,0,0,27.33,82h8a1.34,1.34,0,0,0,1.34-1.33v-52H63.33v52A1.34,1.34,0,0,0,64.67,82h8A1.34,1.34,0,0,0,74,80.67V61l.2.36a1.34,1.34,0,0,0,1.16.67,1.28,1.28,0,0,0,.66-.18,1.32,1.32,0,0,0,.5-1.81l-.67-1.17a1.34,1.34,0,0,0-1.82-.5l0,0V55.09a4,4,0,0,0,0-7.57V44.29S74,44.32,74,44.32Zm-2.7,35H66V28.67A2.68,2.68,0,0,0,63.33,26H36.67A2.68,2.68,0,0,0,34,28.67V79.33H28.67v-56a2.66,2.66,0,0,1,2.66-2.66H68.67a2.66,2.66,0,0,1,2.66,2.66v56Z"/></g></svg>