<svg xmlns="http://www.w3.org/2000/svg" viewBox="0 0 100 100"><defs><style>.cls-1{fill:#064694;}.cls-2{fill:#fff;}</style></defs><title>avm</title><g id="bg"><path class="cls-1" d="M50,100h0A50,50,0,1,0,0,50a50,50,0,0,0,50,50"/></g><g id="Layer_2" data-name="Layer 2"><path class="cls-2" d="M32.1,38.57a46.41,46.41,0,0,0-1.86,7.85,1.1,1.1,0,0,0,.53,1.1l12,6.92a1.08,1.08,0,0,0,.55.15.85.85,0,0,0,.44-.11,1.08,1.08,0,0,0,.62-.77A53.94,53.94,0,0,1,46,47.57a50.14,50.14,0,0,1,5.45-11.42,1.08,1.08,0,0,0,.15-.84,1.12,1.12,0,0,0-.51-.67L38.69,27.51a1.07,1.07,0,0,0-1.44.35A46.16,46.16,0,0,0,32.1,38.57ZM32.49,46a43.14,43.14,0,0,1,1.66-6.77,44.28,44.28,0,0,1,4.35-9.36l10.48,6a52.54,52.54,0,0,0-5.08,11,49.1,49.1,0,0,0-1.37,4.92Z"/><path class="cls-2" d="M34.84,39.48a45.58,45.58,0,0,0-1.41,5.4A1.07,1.07,0,0,0,34,46l6.89,4a1,1,0,0,0,.55.14,1.3,1.3,0,0,0,.42-.08,1.1,1.1,0,0,0,.63-.73c.25-.89.52-1.78.81-2.66a53.58,53.58,0,0,1,4.23-9.55,1.09,1.09,0,0,0-.41-1.47L39.72,31.4a1.09,1.09,0,0,0-.83-.1,1.14,1.14,0,0,0-.66.52A42.22,42.22,0,0,0,34.84,39.48Zm.87,5.07a38.92,38.92,0,0,1,1.18-4.39,40.91,40.91,0,0,1,2.68-6.32L45.05,37a55.53,55.53,0,0,0-3.88,9c-.16.48-.3,1-.45,1.45Z"/><path class="cls-2" d="M33,51.84v3.68a1.06,1.06,0,0,0,.55.94L43.06,62a1.07,1.07,0,0,0,.55.14,1,1,0,0,0,.53-.14,1.08,1.08,0,0,0,.55-.94V57.37a1.06,1.06,0,0,0-.55-.94l-9.57-5.52a1.11,1.11,0,0,0-1.09,0A1.06,1.06,0,0,0,33,51.84Zm2.16,1.88L42.51,58v1.18l-7.4-4.27Z"/><path class="cls-2" d="M52,38.88l2.25,1.29a1.07,1.07,0,0,1,.39,1.48,1.09,1.09,0,0,1-.93.54,1,1,0,0,1-.54-.14L51,40.75A1.08,1.08,0,0,1,52,38.88Z"/><path class="cls-2" d="M72.85,28.81,50.52,15.91a1.15,1.15,0,0,0-1.08,0L36.69,23.28h0a1.12,1.12,0,0,0-.34.31,49.58,49.58,0,0,0-9.78,29.57V70.25a1.08,1.08,0,0,0,.55.94L49.45,84.08a1.08,1.08,0,0,0,1.1,0h0L72.88,71.19a1.1,1.1,0,0,0,.55-.94V29.75A1.2,1.2,0,0,0,72.85,28.81ZM50,18.11,70.15,29.75,59.56,35.86,39.38,24.22ZM48.9,66.05V81.27L28.74,69.63V53.16a47.46,47.46,0,0,1,8.78-27.53L58,37.43A49.61,49.61,0,0,0,48.9,66.05Zm22.33,3.58L51.07,81.27V66.05a47.37,47.37,0,0,1,9.21-28.11l10.94-6.32v38Z"/></g></svg>