<svg xmlns="http://www.w3.org/2000/svg" viewBox="0 0 100 100"><defs><style>.cls-1{fill:#064694;}.cls-2{fill:#fff;}</style></defs><title>cctv</title><g id="bg"><path class="cls-1" d="M50,100h0A50,50,0,1,0,0,50a50,50,0,0,0,50,50"/></g><g id="cctv"><path class="cls-2" d="M37.73,69.74H17.21a2.59,2.59,0,1,1,0-5.17H35.29l.41-6.7a2.64,2.64,0,0,1,2.73-2.42,2.57,2.57,0,0,1,2.43,2.74l-.55,9.12a2.58,2.58,0,0,1-2.58,2.43"/><path class="cls-2" d="M59.12,68.93,28.62,51.32a6.23,6.23,0,0,1-2.29-8.52L36.64,25a6.23,6.23,0,0,1,8.52-2.28L75.67,40.28A6.24,6.24,0,0,1,78,48.8L67.64,66.65a6.24,6.24,0,0,1-8.52,2.28"/><path class="cls-2" d="M73.52,72,72,71.09a4.55,4.55,0,0,1-1.66-6.21L77.74,52A4.55,4.55,0,0,1,84,50.32l1.57.9a4.55,4.55,0,0,1,1.66,6.21l-7.45,12.9A4.55,4.55,0,0,1,73.52,72"/><path class="cls-1" d="M38.32,50.06h0a3.85,3.85,0,1,0-3.85-3.84,3.86,3.86,0,0,0,3.85,3.84"/><path class="cls-2" d="M15.47,78.17a3.25,3.25,0,0,1-3.26-3.26V56a3.26,3.26,0,1,1,6.51,0V74.91a3.26,3.26,0,0,1-3.25,3.26"/></g></svg>