<svg id="Capa_1" data-name="Capa 1" xmlns="http://www.w3.org/2000/svg" viewBox="0 0 155.81 152.8"><defs><style>.cls-1{fill:#d83431;}</style></defs><title>coronavirus</title><path class="cls-1" d="M150.13,75.07a7,7,0,0,0-8,4.62l-8-3.5c0-.55,0-1.09,0-1.61a55.6,55.6,0,0,0-1.76-13.91L136,58.23a8,8,0,0,0,12.74-8.94L147,44.76a8,8,0,0,0-10-4.94,8,8,0,0,0-5.52,7.59L127.4,48c-.56-1-1.17-2.06-1.82-3.09a2.29,2.29,0,1,0-3.87,2.44c.77,1.22,1.47,2.44,2.09,3.63a3.2,3.2,0,0,0,3.27,1.68l7.35-1a2.28,2.28,0,0,0,1.83-3,3.42,3.42,0,0,1,.15-2.66,3.46,3.46,0,0,1,2-1.76,3.54,3.54,0,0,1,4.33,2.19l1.69,4.54a3.55,3.55,0,0,1-1.79,4.48,3.44,3.44,0,0,1-4.3-1.36,2.24,2.24,0,0,0-1.47-1,2.31,2.31,0,0,0-1.77.34L129,57.44a3.17,3.17,0,0,0-1.28,3.48,51.48,51.48,0,0,1,1.84,13.66c0,.76,0,1.55,0,2.36a3.17,3.17,0,0,0,1.9,3.06l11.43,5a2.24,2.24,0,0,0,2-.07A2.29,2.29,0,0,0,146,83.34l.36-1.85a2.44,2.44,0,0,1,1-1.56,2.4,2.4,0,0,1,1.84-.37,2.46,2.46,0,0,1,1.94,2.88L149.31,92a2.47,2.47,0,0,1-3,1.91,2.56,2.56,0,0,1-1.79-3l0-.25a2.28,2.28,0,0,0-.51-1.94,2.31,2.31,0,0,0-1.84-.79l-12.36.57A3.21,3.21,0,0,0,127,90.68a50.79,50.79,0,0,1-4.51,9.93,3.2,3.2,0,0,0,.3,3.68l5.47,6.49a2.29,2.29,0,0,0,3.32.19,3.42,3.42,0,0,1,5.07,4.56l-1.58,2.07a3.54,3.54,0,0,1-4.74.85,3.44,3.44,0,0,1-1.31-3.92,2.28,2.28,0,0,0-1.24-2.82l-7.88-3.46a3.19,3.19,0,0,0-3.64.77,51.26,51.26,0,0,1-12,9.77,3.21,3.21,0,0,0-1.55,3.27l2,12.29a2.27,2.27,0,0,0,1.13,1.62,2.3,2.3,0,0,0,2,.14l1.74-.7a2.44,2.44,0,0,1,1.93,0,2.51,2.51,0,0,1,1.31,1.44,2.54,2.54,0,0,1-1.54,3.12l-8.91,3.57a2.44,2.44,0,0,1-1.93-.05,2.41,2.41,0,0,1-1.3-1.43A2.55,2.55,0,0,1,100.6,139l.24-.09a2.28,2.28,0,0,0,1-3.45l-7.18-10.08a3.22,3.22,0,0,0-3.4-1.23,51.32,51.32,0,0,1-23.15.6,3.23,3.23,0,0,0-3.33,1.41L57.6,137.42a2.28,2.28,0,0,0,1.14,3.37l.26.1a3.47,3.47,0,0,1,2,1.8,3.5,3.5,0,0,1,.12,2.66,2.11,2.11,0,0,0-.14.78,1.78,1.78,0,0,1-2.7,1.89L49.4,144.8a3.5,3.5,0,0,1-2.1-4.4,3.39,3.39,0,0,1,1.77-2,3.74,3.74,0,0,1,2.86-.14l.2.07a2.28,2.28,0,0,0,3.06-1.89l1.46-13.23a3.19,3.19,0,0,0-1.71-3.18,51.17,51.17,0,0,1-14.22-10.86,3.21,3.21,0,0,0-3.55-.79l-10.79,4.42a2.33,2.33,0,0,0-1.28,1.35,2.3,2.3,0,0,0,.13,1.85,2.77,2.77,0,0,1-.93,3.65,2.89,2.89,0,0,1-3.91-.86l-2.76-4a2.86,2.86,0,0,1,.48-3.9,2.79,2.79,0,0,1,4,.51,2.3,2.3,0,0,0,3.54.13L33.2,103a3.17,3.17,0,0,0,.4-3.66,50.49,50.49,0,0,1-2.26-4.61,2.28,2.28,0,0,0-4.2,1.8c.61,1.42,1.28,2.82,2,4.16l-5.44,6.16a7.34,7.34,0,0,0-8.41.5,7.45,7.45,0,0,0-1.41,10.1l2.77,4a7.5,7.5,0,0,0,10.18,2.07,7.36,7.36,0,0,0,3.25-7.23L38,113A55.9,55.9,0,0,0,52,123.7l-1.09,9.82a8.28,8.28,0,0,0-3.81.81A7.89,7.89,0,0,0,43,138.91a8.1,8.1,0,0,0,4.86,10.18l8.84,3.23a7.81,7.81,0,0,0,2.64.48,6.06,6.06,0,0,0,3.53-1.08,6.54,6.54,0,0,0,2.66-5.19,8.05,8.05,0,0,0-2.73-8.72l5.37-8.42a56.37,56.37,0,0,0,23.35-.61l5.22,7.31A7,7,0,0,0,104,147.83l8.91-3.57a7.09,7.09,0,0,0,4.16-8.87,7,7,0,0,0-8.34-4.52l-1.42-8.62a55.73,55.73,0,0,0,11.63-9.41l5.33,2.33a8,8,0,0,0,14.41,5.21l1.58-2.07a8,8,0,0,0-9.86-12l-3.5-4.17A55.7,55.7,0,0,0,131,93l9-.41a7,7,0,0,0,13.81.26l1.87-9.55a7,7,0,0,0-5.54-8.25Z"/><path class="cls-1" d="M14.73,81.25l8.58,2c.18,1.19.41,2.4.69,3.61a2.27,2.27,0,0,0,2.22,1.78,2.94,2.94,0,0,0,.51-.05,2.3,2.3,0,0,0,1.73-2.74c-.32-1.4-.57-2.81-.76-4.17A3.21,3.21,0,0,0,25.26,79l-12.14-2.8a2.28,2.28,0,0,0-2.8,2.21v1.42A2.93,2.93,0,0,1,7.39,82.7a2.8,2.8,0,0,1-2-.84,2.85,2.85,0,0,1-.82-2L4.65,71a3.06,3.06,0,0,1,.95-2.17,2.73,2.73,0,0,1,2-.8,2.87,2.87,0,0,1,2.78,2.88,2.3,2.3,0,0,0,.87,1.8,2.26,2.26,0,0,0,1.94.44l12.06-2.83a3.23,3.23,0,0,0,2.43-2.68A50.65,50.65,0,0,1,34,49a3.2,3.2,0,0,0-.33-3.66L28,38.62a2.27,2.27,0,0,0-1.81-.8,2.3,2.3,0,0,0-1.76.9l-.5.66a2.24,2.24,0,0,1-3.21.37,2.33,2.33,0,0,1-.27-3.17l3.83-5.06a2.23,2.23,0,0,1,3.66,2.54,2.3,2.3,0,0,0,1,3.33l8,3.48a3.2,3.2,0,0,0,3.62-.78A51.5,51.5,0,0,1,53.19,30a3.21,3.21,0,0,0,1.59-3.24L52.92,14.46a2.29,2.29,0,0,0-3.08-1.8l-1.75.68a2.44,2.44,0,0,1-1.93-.08,2.41,2.41,0,0,1-1.29-1.45,2.56,2.56,0,0,1,1.58-3.1l9-3.45a2.44,2.44,0,0,1,1.93.08,2.39,2.39,0,0,1,1.28,1.45A2.55,2.55,0,0,1,57,9.89l-.24.1a2.29,2.29,0,0,0-1.06,3.43L62.8,23.59a3.19,3.19,0,0,0,3.37,1.27A51.67,51.67,0,0,1,78.4,23.4h0a3.19,3.19,0,0,0,3-2.12l2.33-6.53a2.32,2.32,0,0,0-.1-1.79,2.26,2.26,0,0,0-1.37-1.16,3.7,3.7,0,0,1-2.57-4,3.6,3.6,0,0,1,1.39-2.41A3.92,3.92,0,0,1,84,4.6l3.2.41A3.8,3.8,0,0,1,90.57,9.1a3.68,3.68,0,0,1-2.75,3.19,2.28,2.28,0,0,0-1.69,2.47l.81,7.08a3.18,3.18,0,0,0,2.48,2.75A50.62,50.62,0,0,1,104,30.24a3.19,3.19,0,0,0,3.6-.28l9.68-7.85a2.3,2.3,0,0,0,0-3.57l-1.47-1.17a2.45,2.45,0,0,1-.32-3.54,2.54,2.54,0,0,1,3.47-.22l7.52,6a2.45,2.45,0,0,1,.32,3.54,2.54,2.54,0,0,1-3.47.22l-.21-.16a2.25,2.25,0,0,0-1.95-.43A2.31,2.31,0,0,0,119.57,24l-5.18,11.25a3.2,3.2,0,0,0,.62,3.56l1,1.09a2.28,2.28,0,1,0,3.36-3.09l-.46-.5,3.76-8.17A7,7,0,0,0,129.27,16l-7.51-6a7.09,7.09,0,0,0-9.76.79,7,7,0,0,0,.21,9.49l-6.78,5.5a55.76,55.76,0,0,0-14.06-5.47L90.87,16A8.36,8.36,0,0,0,95.12,9.6,8.4,8.4,0,0,0,87.77.47L84.56.06a8.57,8.57,0,0,0-6.28,1.75,8.14,8.14,0,0,0-3.12,5.48,8.3,8.3,0,0,0,3.59,7.84l-1.32,3.7A56.5,56.5,0,0,0,66,20.2L60.9,12.83A7,7,0,0,0,63,5.35,6.94,6.94,0,0,0,59.29,1.2,7.06,7.06,0,0,0,53.77,1l-9,3.45a7.09,7.09,0,0,0-4.28,8.81,7,7,0,0,0,8.28,4.64l1.3,8.63a55.87,55.87,0,0,0-12.23,9.76l-5.16-2.23a6.86,6.86,0,0,0-2.59-6.61,6.82,6.82,0,0,0-9.54,1.32l-3.83,5.07a6.85,6.85,0,0,0,1,9.43,6.76,6.76,0,0,0,5.14,1.54,6.88,6.88,0,0,0,3.24-1.27l3.46,4.07a55.06,55.06,0,0,0-6.31,18.51l-8.85,2.08a7.47,7.47,0,0,0-6.71-4.7,7.29,7.29,0,0,0-5.3,2.08A7.68,7.68,0,0,0,.08,71L0,79.81a7.39,7.39,0,0,0,7.39,7.46,7.51,7.51,0,0,0,7.34-6Z"/><path class="cls-1" d="M67.07,68.76a2.29,2.29,0,1,0-2.14-4c-5.47,2.9-11.7,2.13-14.81-1.82a9.81,9.81,0,0,1-1.69-8.27,15.72,15.72,0,0,1,15.19-12,9.84,9.84,0,0,1,7.65,3.58c2.62,3.33,2.59,8.3-.09,12.66a2.29,2.29,0,0,0,3.9,2.4c3.69-6,3.6-13-.22-17.89a14.34,14.34,0,0,0-11.12-5.32A20.3,20.3,0,0,0,44,53.69a14.3,14.3,0,0,0,2.58,12A14.58,14.58,0,0,0,58.17,71a19.09,19.09,0,0,0,8.9-2.28Z"/><path class="cls-1" d="M111.44,48.25c0-4.74-4.41-8.59-9.83-8.59s-9.84,3.85-9.84,8.59,4.42,8.6,9.84,8.6S111.44,53,111.44,48.25Zm-15.09,0c0-2.21,2.36-4,5.26-4s5.26,1.81,5.26,4-2.36,4-5.26,4S96.35,50.47,96.35,48.25Z"/><path class="cls-1" d="M84.91,87.56A10.54,10.54,0,1,0,74.37,98.1,10.55,10.55,0,0,0,84.91,87.56Zm-16.51,0a6,6,0,1,1,6,6A6,6,0,0,1,68.4,87.56Z"/><path class="cls-1" d="M114.72,83.26a8.2,8.2,0,1,0-8.2,8.2A8.2,8.2,0,0,0,114.72,83.26Zm-11.82,0a3.63,3.63,0,1,1,3.62,3.62A3.63,3.63,0,0,1,102.9,83.26Z"/><path class="cls-1" d="M84.71,120.12a8,8,0,1,0-8-8A8,8,0,0,0,84.71,120.12Zm0-11.49a3.46,3.46,0,1,1-3.46,3.46A3.46,3.46,0,0,1,84.71,108.63Z"/><path class="cls-1" d="M48.77,106.62a8.27,8.27,0,1,0-8.27-8.27A8.28,8.28,0,0,0,48.77,106.62Zm0-12a3.7,3.7,0,1,1-3.7,3.69A3.69,3.69,0,0,1,48.77,94.66Z"/><path class="cls-1" d="M95.34,69.73a2.3,2.3,0,0,0-2.29-2.29H91A2.29,2.29,0,0,0,91,72h2A2.3,2.3,0,0,0,95.34,69.73Z"/><path class="cls-1" d="M64,112h2.08a2.29,2.29,0,0,0,0-4.57H64A2.29,2.29,0,1,0,64,112Z"/><path class="cls-1" d="M44.79,78.69a2.29,2.29,0,0,0,0-4.58h-2a2.29,2.29,0,0,0,0,4.58Z"/><path class="cls-1" d="M85.4,38.68a2.29,2.29,0,0,0,0-4.58H82.62a2.29,2.29,0,0,0,0,4.58Z"/><path class="cls-1" d="M100.62,100a2.29,2.29,0,0,0,0,4.58h3.07a2.29,2.29,0,1,0,0-4.58Z"/></svg>