<svg id="Capa_1" data-name="Capa 1" xmlns="http://www.w3.org/2000/svg" viewBox="0 0 116.49 103.58"><defs><style>.cls-1{fill:#d83431;}</style></defs><title>corpse</title><path class="cls-1" d="M43.94,26.58a1.69,1.69,0,0,0-2.35-.6l-7.73,4.78a1.77,1.77,0,0,0-.58,2.4,1.68,1.68,0,0,0,2.34.6L43.36,29A1.77,1.77,0,0,0,43.94,26.58Z"/><path class="cls-1" d="M47.47,32.57A1.7,1.7,0,0,0,45.12,32l-7.74,4.78a1.79,1.79,0,0,0-.58,2.4,1.72,1.72,0,0,0,1.47.85,1.68,1.68,0,0,0,.88-.25L46.88,35A1.79,1.79,0,0,0,47.47,32.57Z"/><path class="cls-1" d="M60.31,44.15,46.46,20.61a4.57,4.57,0,0,0-3.61-2.26L39,18.06c-.43-1.41-.81-2.76-1.12-4a11.37,11.37,0,0,1-.1-4.44,8.38,8.38,0,0,0-.67-5.53C35.3.68,32.1-.71,28.58.34A9.05,9.05,0,0,0,22.49,6.1a5.4,5.4,0,0,0-3.25.16,5.5,5.5,0,0,0-3.55,4.62,5.27,5.27,0,0,0-2.45.3A5.36,5.36,0,0,0,10,17.74a5.13,5.13,0,0,0-1.72.32,5.26,5.26,0,0,0-3.19,6.5A5.12,5.12,0,0,0,.29,31.4l1,2.74a7.15,7.15,0,0,0,1.59,2.57l2.56,2.67a3.88,3.88,0,0,1,.26.31c-.49,3.55.56,8.22,3.14,13.93a109,109,0,0,0,9.94,16.79c2.83,4,7.16,13,12.2,25.41a12.45,12.45,0,0,0,6.18,6.59,12,12,0,0,0,8.93.57,12.62,12.62,0,0,0,8-15.8l-.58-1.91c-.59-2-1.2-4-2-6a121.15,121.15,0,0,1-4.84-14.81,1.71,1.71,0,1,0-3.32.81,123.85,123.85,0,0,0,5,15.23c.76,2,1.35,3.9,1.92,5.79l.59,1.94A9.19,9.19,0,0,1,45,99.73a8.77,8.77,0,0,1-10.88-5.19c-3.64-9-8.77-20.76-12.58-26.11a104.91,104.91,0,0,1-9.61-16.22c-2.46-5.42-3.4-9.71-2.8-12.55,0,0,0,0,0-.06a5.5,5.5,0,0,1,.52-1.43c.56-1.05,1.17-2.18,1.87-3.35a2.61,2.61,0,0,0,.17-.28A25.94,25.94,0,0,1,29.48,21.71l-2.84,6.63a4.74,4.74,0,0,0,.27,4.26l8.72,14.82,5.12,8.72a4.63,4.63,0,0,0,4,2.28,4.52,4.52,0,0,0,2.38-.68l11.66-7.21A4.72,4.72,0,0,0,60.31,44.15ZM6.93,36,5.31,34.35A3.86,3.86,0,0,1,4.48,33l-1-2.74a1.73,1.73,0,0,1,1-2.18A1.62,1.62,0,0,1,6.64,29l1.65,4.59C7.79,34.45,7.35,35.27,6.93,36ZM10.62,30,9.87,27.9a0,0,0,0,0,0,0L8.33,23.58a1.82,1.82,0,0,1,1.09-2.31,1.63,1.63,0,0,1,1.3,0,1.73,1.73,0,0,1,.89,1l1.63,4.51A32.31,32.31,0,0,0,10.62,30ZM16,24.3l-2.7-7.46a1.94,1.94,0,0,1,1.16-2.46,1.9,1.9,0,0,1,1.48.07,1.85,1.85,0,0,1,1,1L19.32,22A28.8,28.8,0,0,0,16,24.3Zm6.42-3.89-2.31-6.09h0L19.19,12a2,2,0,0,1,1.23-2.56,1.93,1.93,0,0,1,2.51,1.13l2.94,8.52A31.66,31.66,0,0,0,22.38,20.41Zm6.82-2.13-2.38-6.89,0,0a19,19,0,0,1-1.05-4c-.09-1,1.59-3,3.81-3.71,2-.59,3.51.11,4.58,2.08.55,1,.47,1.89.28,3.49a14.75,14.75,0,0,0,.17,5.67c.21.84.45,1.73.71,2.64A43.49,43.49,0,0,0,29.2,18.28ZM57,47.63,45.3,54.83a1.16,1.16,0,0,1-.87.14,1.23,1.23,0,0,1-.73-.56L29.86,30.87a1.33,1.33,0,0,1-.08-1.18l3.27-7.61a2,2,0,0,1,.1-.21l0,0,.1-.15,0,0,.13-.13,0,0,.16-.12h0l.17-.09h0a.49.49,0,0,1,.17-.06l.05,0,.16,0h.08a1.08,1.08,0,0,1,.18,0l.76.05,7.33.54a1.19,1.19,0,0,1,.92.59L57.36,45.88A1.29,1.29,0,0,1,57,47.63Z"/><path class="cls-1" d="M113.13,24.87a5.2,5.2,0,0,0-1.69-.31,5.26,5.26,0,0,0-3.19-6.5,5.13,5.13,0,0,0-1.72-.32,5.37,5.37,0,0,0-3.28-6.56,5.27,5.27,0,0,0-2.45-.3,5.5,5.5,0,0,0-3.55-4.62A5.37,5.37,0,0,0,94,6.1,9.09,9.09,0,0,0,87.91.34c-3.52-1-6.72.34-8.56,3.73a8.44,8.44,0,0,0-.67,5.53,11.37,11.37,0,0,1-.1,4.44c-.31,1.26-.69,2.61-1.12,4A11.27,11.27,0,0,0,73.66,21c-3.2,3.77-4.24,9.48-3.1,17a69.76,69.76,0,0,1,.73,18.58,1.71,1.71,0,0,0,3.4.37,73.37,73.37,0,0,0-.75-19.46C72,24.85,77.45,21.69,79.31,21l.23-.08.21-.07c15,.55,21.28,7.53,25,13.69l.07.14.1.15c.7,1.17,1.31,2.3,1.87,3.35a5.16,5.16,0,0,1,.52,1.43.11.11,0,0,1,0,0c.62,2.85-.33,7.13-2.79,12.56A104.91,104.91,0,0,1,95,68.43C91.14,73.78,86,85.58,82.37,94.54a8.76,8.76,0,0,1-10.88,5.19A9.19,9.19,0,0,1,65.72,88.2l.59-1.94c.57-1.89,1.16-3.83,1.92-5.79a125.23,125.23,0,0,0,5-15.4,1.71,1.71,0,0,0-3.33-.8,119.93,119.93,0,0,1-4.88,15c-.8,2.08-1.41,4.09-2,6l-.58,1.91a12.62,12.62,0,0,0,8,15.8,12,12,0,0,0,8.93-.57,12.45,12.45,0,0,0,6.18-6.59c5-12.42,9.38-21.45,12.2-25.41a109,109,0,0,0,9.94-16.79c2.58-5.71,3.63-10.38,3.14-13.93a3.88,3.88,0,0,1,.26-.31l2.56-2.67a7.07,7.07,0,0,0,1.59-2.57l1-2.74A5.16,5.16,0,0,0,113.13,24.87ZM87.29,18.28a43.49,43.49,0,0,0-6.1-.78c.26-.92.5-1.8.71-2.64a14.75,14.75,0,0,0,.17-5.67c-.19-1.6-.27-2.48.28-3.49C83.42,3.73,85,3,86.93,3.62c2.22.66,3.9,2.72,3.82,3.71a19.8,19.8,0,0,1-1.06,4Zm6.82,2.13a31.66,31.66,0,0,0-3.49-1.29l2.29-6.63h0l.64-1.86a1.92,1.92,0,0,1,1-1.1,2,2,0,0,1,1.52-.06A2,2,0,0,1,97.3,12l-2.74,7.19Zm7.56.74h0l-1.14,3.15A28.8,28.8,0,0,0,97.17,22l2.45-6.45v0h0a1.79,1.79,0,0,1,1-1,1.88,1.88,0,0,1,1.47-.07,2,2,0,0,1,1.17,2.45Zm5,6.72v0L105.87,30a32.31,32.31,0,0,0-2.62-3.17l1.64-4.52a1.69,1.69,0,0,1,.88-1,1.67,1.67,0,0,1,1.3,0,1.83,1.83,0,0,1,1.1,2.31ZM113,30.26,112,33a3.86,3.86,0,0,1-.83,1.35L109.56,36c-.42-.77-.86-1.59-1.36-2.43L109.85,29a1.62,1.62,0,0,1,2.09-.94A1.72,1.72,0,0,1,113,30.26Z"/></svg>