<svg id="Layer_1" data-name="Layer 1" xmlns="http://www.w3.org/2000/svg" viewBox="0 0 100 100"><defs><style>.cls-1{fill:#064694;}.cls-2{fill:#fff;}</style></defs><title>ticket-counter</title><path class="cls-1" d="M50,98h0A48,48,0,1,0,2,50,48,48,0,0,0,50,98"/><path class="cls-2" d="M40.54,32.08a10.1,10.1,0,1,0,9.88-10.31,10.1,10.1,0,0,0-9.88,10.31"/><path class="cls-1" d="M50.63,39.12l-.48,0c-3.62-.25-3.7-2.47-3.7-2.56a.65.65,0,0,1,.63-.66h0a.64.64,0,0,1,.64.61c0,.08.16,1.15,2.5,1.32a3.28,3.28,0,0,0,3.34-1.54.64.64,0,0,1,.85-.34.65.65,0,0,1,.34.85,4.34,4.34,0,0,1-4.14,2.34"/><path class="cls-2" d="M57.94,73.19H43.33c-3,0-5.73-1.65-6.06-3.77L35.44,51.28c-.44-2.9,2.25-5.38,6-5.38H59.79c3.79,0,6.48,2.48,6,5.38L64,69.42c-.32,2.12-3,3.77-6.05,3.77"/><polygon class="cls-1" points="54.17 68.12 50.63 70.92 47.1 68.12 51.23 47.16 50.04 47.16 54.17 68.12"/><path class="cls-2" d="M26.07,73.07a2.14,2.14,0,0,1-.5-4.23,12.73,12.73,0,0,0,7.71-6.42c2.58-5.54,2.43-12.62,2.43-12.68a2.16,2.16,0,0,1,2.09-2.21h.06A2.14,2.14,0,0,1,40,49.63c0,.32.17,8.15-2.82,14.6A16.92,16.92,0,0,1,26.58,73a2.16,2.16,0,0,1-.51.06"/><path class="cls-2" d="M74.79,73.07a2.22,2.22,0,0,1-.51-.06,16.91,16.91,0,0,1-10.59-8.78c-3-6.45-2.83-14.28-2.82-14.6A2.15,2.15,0,0,1,63,47.53h.05a2.16,2.16,0,0,1,2.1,2.2c0,.07-.14,7.17,2.43,12.69a12.58,12.58,0,0,0,7.71,6.42,2.15,2.15,0,0,1-.51,4.23"/><path class="cls-2" d="M81.54,78.23H18.46a2.15,2.15,0,1,1,0-4.3H81.54a2.15,2.15,0,1,1,0,4.3"/></svg>