<svg id="Layer_1" data-name="Layer 1" xmlns="http://www.w3.org/2000/svg" viewBox="0 0 52.45 38.1"><defs><style>.cls-1{fill:#d83431;}</style></defs><title>dangerous</title><path class="cls-1" d="M43.89,39.85l6.2-8.93a2.54,2.54,0,0,1,3.42-.72l1.24.76a.55.55,0,0,0,.58,0l3.3-2a.55.55,0,0,0,.18-.76l-1.17-1.89.94-.58-.58-1-.94.59L44.22,4.58,45.16,4l-.58-.94-.95.58-.58-.94a.55.55,0,0,0-.76-.18L38.51,4.85a2.22,2.22,0,0,0-.71,3.06l4.92,8-1.6.73a2.4,2.4,0,0,0-1.18,3.18c.05.09.09.18.14.26l3.44,5.54-5.81,7.87a.54.54,0,0,0,0,.62l3.55,5.72a1.59,1.59,0,0,0,2.19.52,1.56,1.56,0,0,0,.47-.45Zm9.89-17.71L52.37,23,53,24l1.41-.88L55,24l-1.42.87.59.94L55.53,25l.58.94-1.41.88.58.94,1.42-.88.87,1.42-2.35,1.46L40,5.21,42.4,3.75ZM39.1,5.8l3.5,5.65-.94.59L38.74,7.32A1.1,1.1,0,0,1,39.1,5.8ZM41,19.45a1.29,1.29,0,0,1,.42-1.78.61.61,0,0,1,.14-.07l1.72-.79,2.14,3.46,0,.06A2.63,2.63,0,0,1,43,19.54l-.81.76a3.77,3.77,0,0,0,3.6,1.09,2.51,2.51,0,0,1-.49,1.72l-1.11,1.5Zm1.54,20a.46.46,0,0,1-.4-.23l-3.35-5.4,7.41-10a3.62,3.62,0,0,0,.16-4.08L42.24,13l.94-.58,6.13,9.9-.94.58.58.94.95-.58,3.52,5.69a3.64,3.64,0,0,0-4.24,1.36L43,39.22A.48.48,0,0,1,42.57,39.43Z" transform="translate(-6.45 -2.44)"/><path class="cls-1" d="M20.49,39.83a11.62,11.62,0,0,1-4-.7h0c-4.59-1.68-7.65-4.33-9.1-7.87C5,25.44,7.84,19.38,8,19.12a.52.52,0,0,1,.69-.24.5.5,0,0,1,.27.33,6.91,6.91,0,0,0,2.11,3c1.18-5.91,6.34-9.49,6.57-9.65,3.33-2.66.61-7.95.58-8a.5.5,0,0,1,.22-.69.5.5,0,0,1,.56.05c9.16,7.44,8.64,14.93,7.9,18a5,5,0,0,0,1.86-4.62.52.52,0,0,1,.44-.58.51.51,0,0,1,.5.22,23.37,23.37,0,0,1,2.41,4.95,14.08,14.08,0,0,1-2.42,13.58l-.11.13A11.71,11.71,0,0,1,20.49,39.83Zm-3.64-1.67a10.53,10.53,0,0,0,3.64.64A10.7,10.7,0,0,0,28.75,35l.1-.13a13.06,13.06,0,0,0,2.24-12.59,23.26,23.26,0,0,0-1.38-3.16,6.88,6.88,0,0,1-3.57,4.55.5.5,0,0,1-.68-.24.49.49,0,0,1,0-.44c.16-.35,3.7-8.29-5.62-16.9.59,2.06.95,5.28-1.63,7.35-.09.06-5.56,3.86-6.3,9.83a.53.53,0,0,1-.58.45.54.54,0,0,1-.22-.09,9.47,9.47,0,0,1-2.66-2.87c-.68,2-1.72,6.2-.1,10.16,1.33,3.26,4.19,5.71,8.5,7.29Z" transform="translate(-6.45 -2.44)"/><path class="cls-1" d="M18.3,39.62A.61.61,0,0,1,18,39.5C11.41,34,16,26.9,16.07,26.83a.53.53,0,0,1,.72-.15.54.54,0,0,1,.23.4,3.43,3.43,0,0,0,.8,2.16,10.47,10.47,0,0,1,4.54-10.12.51.51,0,0,1,.7.19.5.5,0,0,1,0,.49,3.67,3.67,0,0,0-.41,1.75,3.75,3.75,0,0,0,.64,2l.21.32a32.75,32.75,0,0,0,2.21,2.91,9.05,9.05,0,0,1,1.46,2.49c2.58,5.32-1.85,9.51-1.89,9.55a.52.52,0,0,1-.73,0,.51.51,0,0,1,0-.71c.16-.15,3.92-3.74,1.66-8.38l0-.05a7.86,7.86,0,0,0-1.29-2.2,31.71,31.71,0,0,1-2.28-3l-.21-.31a4.83,4.83,0,0,1-.81-2.52,4,4,0,0,1,0-.6A9.49,9.49,0,0,0,19,30.23a.51.51,0,0,1-.39.61.46.46,0,0,1-.26,0,3.53,3.53,0,0,1-2.09-2.21,8.16,8.16,0,0,0,2.35,10.09.52.52,0,0,1,.06.72.51.51,0,0,1-.39.19Z" transform="translate(-6.45 -2.44)"/></svg>