<svg xmlns="http://www.w3.org/2000/svg" viewBox="0 0 106 108.98"><defs><style>.cls-1,.cls-2{fill:#00ae5a;}.cls-2,.cls-4,.cls-5,.cls-6,.cls-7,.cls-8,.cls-9{stroke:#fff;}.cls-2,.cls-9{stroke-miterlimit:10;}.cls-2{stroke-width:4px;}.cls-3{fill:#fafafa;}.cls-10,.cls-4,.cls-5,.cls-6,.cls-7,.cls-8{fill:#fff;}.cls-4,.cls-5,.cls-6,.cls-7,.cls-8{stroke-linecap:round;stroke-linejoin:round;}.cls-4,.cls-9{stroke-width:2px;}.cls-5{stroke-width:2.38px;}.cls-6{stroke-width:2.64px;}.cls-7{stroke-width:2.94px;}.cls-8{stroke-width:3.34px;}.cls-9{fill:none;}.cls-10,.cls-9{fill-rule:evenodd;}</style></defs><title>do-1</title><g id="do-bg"><path class="cls-1" d="M50,109h0A50,50,0,1,0,0,59a50,50,0,0,0,50,50"/></g><g id="correct"><path class="cls-2" d="M85.83,2A18.17,18.17,0,1,0,104,20.17,18.19,18.19,0,0,0,85.83,2Z"/><path class="cls-3" d="M95,16.32,85.2,26.16a1.51,1.51,0,0,1-1.07.44,1.53,1.53,0,0,1-1.07-.44l-4.92-4.92a1.51,1.51,0,0,1,0-2.14,1.5,1.5,0,0,1,2.14,0L84.13,23l8.77-8.77a1.5,1.5,0,0,1,2.14,0A1.51,1.51,0,0,1,95,16.32Z"/></g><g id="escalator"><line class="cls-4" x1="41" y1="40.98" x2="54" y2="40.98"/><line class="cls-4" x1="38" y1="31.98" x2="53" y2="31.98"/><line class="cls-5" x1="37" y1="50.98" x2="56" y2="50.98"/><line class="cls-6" x1="34" y1="59.98" x2="58" y2="59.98"/><line class="cls-7" x1="30.5" y1="69.48" x2="59.5" y2="69.48"/><line class="cls-8" x1="24.5" y1="80.48" x2="62.5" y2="80.48"/><path class="cls-9" d="M19,87S30-1,48,23"/><g id="_88998872" data-name=" 88998872"><path class="cls-10" d="M30.16,36.49a6,6,0,0,1-6-6,6,6,0,0,1,6-6,6,6,0,1,1,0,12.08Z"/><path class="cls-1" d="M30.16,25.41a5,5,0,1,1,0,10.08h0a5,5,0,1,1,0-10.08h0m0-2h0a7,7,0,1,0,7,7,7,7,0,0,0-7-7Z"/></g><g id="_88998800" data-name=" 88998800"><path class="cls-10" d="M32.61,79.76a3.07,3.07,0,0,1-2.46-1.22,3.08,3.08,0,0,1-5.47-1.93V57.28a2.73,2.73,0,0,1-1.42.4A2.68,2.68,0,0,1,20.57,55V39a2.92,2.92,0,0,1,2.72-3.07H37a2.64,2.64,0,0,1,2,1,3.31,3.31,0,0,1,.73,2.1V54.54a2.38,2.38,0,0,1,0,.46,2.68,2.68,0,0,1-2.69,2.68,2.73,2.73,0,0,1-1.42-.4V76.56s0,.08,0,.14A3.07,3.07,0,0,1,32.61,79.76Z"/><path class="cls-1" d="M37,36.93A1.92,1.92,0,0,1,38.75,39V54.64a1.42,1.42,0,0,1,0,.36,1.69,1.69,0,0,1-3.38,0V40.9h-.73V54.74h0V76.56a.71.71,0,0,1,0,.14,2.08,2.08,0,0,1-4.15,0v-.09h0V59h-.7V76.49h0v.12a2.08,2.08,0,0,1-4.15,0V40.9H25V55h0a1.69,1.69,0,0,1-3.38,0h0V39a1.93,1.93,0,0,1,1.72-2.07H37m0-2H23.28A3.91,3.91,0,0,0,19.56,39V57h.6a3.7,3.7,0,0,0,3.1,1.68l.42,0v18a4.08,4.08,0,0,0,6.44,3.31,4.08,4.08,0,0,0,6.57-3.22,1.41,1.41,0,0,0,0-.2V58.66l.42,0A3.69,3.69,0,0,0,40.79,55a3.48,3.48,0,0,0,0-.55V39A3.91,3.91,0,0,0,37,34.93Z"/></g><path class="cls-9" d="M69,87S46-1,64,23"/></g></svg>