<svg xmlns="http://www.w3.org/2000/svg" viewBox="0 0 106 108.98"><defs><style>.cls-1,.cls-3,.cls-8{fill:#00ae5a;}.cls-2,.cls-6{fill:#fff;}.cls-2,.cls-3{fill-rule:evenodd;}.cls-4,.cls-5,.cls-7{fill:none;}.cls-4,.cls-5,.cls-7,.cls-8{stroke:#fff;}.cls-5,.cls-7{stroke-width:1.81px;}.cls-7{stroke-linecap:round;stroke-linejoin:round;}.cls-8{stroke-miterlimit:10;stroke-width:4px;}.cls-9{fill:#fafafa;}</style></defs><title>do-11</title><g id="do-bg"><path class="cls-1" d="M50,109h0A50,50,0,1,0,0,59a50,50,0,0,0,50,50"/></g><g id="queue_train" data-name="queue train"><path id="_88997600" data-name=" 88997600" class="cls-2" d="M64.3,44.44a5,5,0,1,1-5,5,5,5,0,0,1,5-5Z"/><path id="_88997528" data-name=" 88997528" class="cls-2" d="M65.4,77.59a1.73,1.73,0,0,0,1.67-1.9V56.88c0-1.14-.78-1.54-1.72-1.54H63c-.95,0-1.72.4-1.72,1.54V77.59h0v17.6a2.08,2.08,0,0,0,4.15,0V77.59Z"/><path id="_88997456" data-name=" 88997456" class="cls-3" d="M62.93,66.87v6.59h0a2.39,2.39,0,0,0,2.41,2.7,2.65,2.65,0,0,0,2.75-2.7h0v-2.3h0V62.58h0V57.06h0V57H62.93v.06h0v9.81Z"/><path id="_88997384" data-name=" 88997384" class="cls-2" d="M63.68,66.83v6.6h0a1.69,1.69,0,0,0,3.38,0h0V71.12h0V62.54h0V57h0a1.69,1.69,0,0,0-3.38,0h0v9.81Z"/><path id="_88997288" data-name=" 88997288" class="cls-2" d="M78.7,44.44a5,5,0,1,1-5,5,5,5,0,0,1,5-5Z"/><path id="_88997216" data-name=" 88997216" class="cls-2" d="M79.8,77.59a1.73,1.73,0,0,0,1.67-1.9V56.88c0-1.14-.78-1.54-1.72-1.54H77.37c-1,0-1.72.4-1.72,1.54V77.59h0v17.6a2.08,2.08,0,0,0,4.15,0V77.59Z"/><path id="_88997144" data-name=" 88997144" class="cls-3" d="M77.33,66.87v6.59h0a2.39,2.39,0,0,0,2.41,2.7,2.65,2.65,0,0,0,2.75-2.7h0v-2.3h0V62.58h0V57.06h0V57H77.33v.06h0v9.81Z"/><path id="_88997072" data-name=" 88997072" class="cls-2" d="M78.08,66.83v6.6h0a1.69,1.69,0,0,0,3.38,0h0V71.12h0V62.54h0V57h0a1.69,1.69,0,0,0-3.38,0h0v9.81Z"/><path id="_89717920" data-name=" 89717920" class="cls-4" d="M21.35,27.63H41.09a4.85,4.85,0,0,1,4.7,4.7l.94,17.48h-31l.94-17.48A4.86,4.86,0,0,1,21.35,27.63Z"/><path id="_89717848" data-name=" 89717848" class="cls-5" d="M19.52,25.33H42.93a5.76,5.76,0,0,1,5.57,5.58l2.24,29.73a5.46,5.46,0,0,1-5.58,5.58H17.28a5.46,5.46,0,0,1-5.58-5.58l2.24-29.73A5.76,5.76,0,0,1,19.52,25.33Z"/><circle id="_89717776" data-name=" 89717776" class="cls-6" cx="18.82" cy="60.58" r="3.13"/><circle id="_89717704" data-name=" 89717704" class="cls-6" cx="43.62" cy="60.58" r="3.13"/><path id="_89716936" data-name=" 89716936" class="cls-2" d="M42.32,66.22l6.06,21.66h0a.81.81,0,0,1-.72,1.1,1.4,1.4,0,0,1-1.47-.71v0h0L40,66.22Z"/><path id="_89716864" data-name=" 89716864" class="cls-2" d="M20.12,66.22,14.06,87.88h0a.81.81,0,0,0,.72,1.1,1.39,1.39,0,0,0,1.47-.71v0h0l6.15-22Z"/><line class="cls-7" x1="24.02" y1="71.36" x2="38.73" y2="71.36"/><line class="cls-7" x1="21.96" y1="77.61" x2="40.02" y2="77.61"/><line class="cls-7" x1="20.32" y1="83.97" x2="41.97" y2="83.97"/></g><g id="correct"><path class="cls-8" d="M85.83,2A18.17,18.17,0,1,0,104,20.17,18.19,18.19,0,0,0,85.83,2Z"/><path class="cls-9" d="M95,16.32,85.2,26.16a1.51,1.51,0,0,1-1.07.44,1.53,1.53,0,0,1-1.07-.44l-4.92-4.92a1.51,1.51,0,0,1,0-2.14,1.5,1.5,0,0,1,2.14,0L84.13,23l8.77-8.77a1.5,1.5,0,0,1,2.14,0A1.51,1.51,0,0,1,95,16.32Z"/></g></svg>