<svg xmlns="http://www.w3.org/2000/svg" viewBox="0 0 106 108.98"><defs><style>.cls-1,.cls-4{fill:#00ae5a;}.cls-2{fill:#fff;fill-rule:evenodd;}.cls-3{fill:none;stroke-linecap:round;stroke-linejoin:round;stroke-width:2px;}.cls-3,.cls-4{stroke:#fff;}.cls-4{stroke-miterlimit:10;stroke-width:4px;}.cls-5{fill:#fafafa;}</style></defs><title>do-10</title><g id="do-bg"><path class="cls-1" d="M50,109h0A50,50,0,1,0,0,59a50,50,0,0,0,50,50"/></g><g id="emergency"><path id="_88995680" data-name=" 88995680" class="cls-2" d="M20.08,25.32H43.75a6.75,6.75,0,0,1,6.74,6.73V85a6.75,6.75,0,0,1-6.74,6.73H20.08A6.75,6.75,0,0,1,13.35,85V32.05A6.75,6.75,0,0,1,20.08,25.32Zm.33,2.92h23a4.52,4.52,0,0,1,4.51,4.51V84.29a4.52,4.52,0,0,1-4.51,4.51h-23a4.52,4.52,0,0,1-4.51-4.51V32.75a4.52,4.52,0,0,1,4.51-4.51Z"/><path id="_88995536" data-name=" 88995536" class="cls-2" d="M65.8,57.82l.12-.14h0L67,56.37l1.09-1.31h0l.12-.14h0l1.24-1.47h0a1.7,1.7,0,0,0-2.6-2.18h0l-1.24,1.47-2.43,2.9L62,57.11h0a1.69,1.69,0,0,0,2.59,2.17h0l1.24-1.48Z"/><path id="_88995464" data-name=" 88995464" class="cls-2" d="M81.12,54.22l.09.17h0l.81,1.5.81,1.5h0l.09.17h0l.91,1.69h0a1.69,1.69,0,0,1-3,1.61h0l-.91-1.69-1.79-3.34-.92-1.69h0a1.7,1.7,0,0,1,3-1.61h0l.91,1.69Z"/><path id="_88995392" data-name=" 88995392" class="cls-2" d="M68.43,39.2a5,5,0,1,1-5,5,5,5,0,0,1,5-5Z"/><path id="_88995320" data-name=" 88995320" class="cls-2" d="M76,72.55,72.48,51.42c-.19-1.12-1-1.39-2-1.23l-.68.11-1,.16-.68.11c-.93.16-1.63.67-1.44,1.8l3,18.56L70,72.12v0l3.1,2.57s3.14-.9,2.88-2.17Z"/><path id="_88995248" data-name=" 88995248" class="cls-2" d="M73.45,74.45l.2.08L70,72v0l-.3.62h0L62.2,88.45a.54.54,0,0,0-.05.11,2.08,2.08,0,0,0,3.75,1.78l0-.1,7.51-15.79Z"/><path id="_88995176" data-name=" 88995176" class="cls-2" d="M62,56l-.18-.06h0l-1.61-.57-1.61-.57h0l-.17-.06h0l-1.82-.64h0a1.7,1.7,0,0,0-1.13,3.2h0l1.81.64,3.57,1.26,1.82.64h0a1.7,1.7,0,0,0,1.13-3.2h0L62,56Z"/><path id="_88995104" data-name=" 88995104" class="cls-2" d="M76.49,54.63l-.18,0h0l-1.68-.33L73,54h0l-.19,0h0l-1.88-.36h0a1.7,1.7,0,0,1,.64-3.33h0l1.89.36,3.71.72,1.89.36h0A1.69,1.69,0,0,1,78.38,55h0l-1.89-.37Z"/><path id="_88995032" data-name=" 88995032" class="cls-2" d="M72.49,74.45l-.2.08L75.93,72v0l.3.62h0l7.5,15.78.06.11A2.08,2.08,0,0,1,80,90.34s0-.07-.05-.1l-7.5-15.79Z"/><line class="cls-3" x1="20.64" y1="84.93" x2="43.11" y2="84.93"/><line class="cls-3" x1="20.64" y1="80.76" x2="37.99" y2="80.76"/><line class="cls-3" x1="20.52" y1="76.24" x2="30.64" y2="76.24"/></g><g id="correct"><path class="cls-4" d="M85.83,2A18.17,18.17,0,1,0,104,20.17,18.19,18.19,0,0,0,85.83,2Z"/><path class="cls-5" d="M95,16.32,85.2,26.16a1.51,1.51,0,0,1-1.07.44,1.53,1.53,0,0,1-1.07-.44l-4.92-4.92a1.51,1.51,0,0,1,0-2.14,1.5,1.5,0,0,1,2.14,0L84.13,23l8.77-8.77a1.5,1.5,0,0,1,2.14,0A1.51,1.51,0,0,1,95,16.32Z"/></g></svg>