<svg xmlns="http://www.w3.org/2000/svg" viewBox="0 0 106 108.98"><defs><style>.cls-1,.cls-2{fill:#00ae5a;}.cls-2{stroke:#fff;stroke-miterlimit:10;stroke-width:4px;}.cls-3{fill:#fafafa;}.cls-4,.cls-5{fill:#fff;}.cls-4{fill-rule:evenodd;}</style></defs><title>do-2</title><g id="do-bg"><path class="cls-1" d="M50,109h0A50,50,0,1,0,0,59a50,50,0,0,0,50,50"/></g><g id="correct"><path class="cls-2" d="M85.83,2A18.17,18.17,0,1,0,104,20.17,18.19,18.19,0,0,0,85.83,2Z"/><path class="cls-3" d="M95,16.32,85.2,26.16a1.51,1.51,0,0,1-1.07.44,1.53,1.53,0,0,1-1.07-.44l-4.92-4.92a1.51,1.51,0,0,1,0-2.14,1.5,1.5,0,0,1,2.14,0L84.13,23l8.77-8.77a1.5,1.5,0,0,1,2.14,0A1.51,1.51,0,0,1,95,16.32Z"/></g><g id="elevator"><path id="_88996736" data-name=" 88996736" class="cls-4" d="M22.59,25.3,58,32.5c1.06.21,2,.8,2,1.79V82.18c0,1-.91,1.58-2,1.79l-35.44,7.2a1.78,1.78,0,0,1-2-1.79V27.09a1.77,1.77,0,0,1,2-1.79ZM58.53,82V35.89c-.05-1-.26-1.91-1.07-2.08L24.71,27.1a1.77,1.77,0,0,0-2,1.79V87.58a1.79,1.79,0,0,0,2,1.79l33-6.64a1.11,1.11,0,0,0,.79-.73Z"/><path id="_88996664" data-name=" 88996664" class="cls-5" d="M50.1,47.09V40.54l-2.1-1L52.21,35l4.21,8.51-2.11-1v6.55l-4.21-2Z"/><g id="_88996448" data-name=" 88996448"><path class="cls-4" d="M31.14,97.14a3.07,3.07,0,0,1-3.08-3.06,1.62,1.62,0,0,1,0-.22V66.58l-2.38,4c-.53.92-1.4,2.15-2.76,2.15a2.56,2.56,0,0,1-1.32-.4,2.26,2.26,0,0,1-1.08-1.53,3.44,3.44,0,0,1,.72-2.62L24,63.73V56.38a2.91,2.91,0,0,1,2.72-3.07H40.47a2.91,2.91,0,0,1,2.72,3.07v16a2.69,2.69,0,0,1-4.12,2.27V94a3.08,3.08,0,0,1-5.48,1.91A3,3,0,0,1,31.14,97.14Z"/><path class="cls-1" d="M26.71,54.31H40.47a1.93,1.93,0,0,1,1.72,2.07v16h0a1.7,1.7,0,0,1-3.39,0h0V58.28h-.72v35.6a.41.41,0,0,1,0,.11,2.08,2.08,0,0,1-4.16,0,.49.49,0,0,1,0-.12h0V76.39h-.71V94h0v.09a2.08,2.08,0,0,1-4.15,0,.61.61,0,0,1,0-.14V72.12h0V58.28h-.73v5.87l-3.51,6c-.58,1-1.19,1.66-1.9,1.66a1.48,1.48,0,0,1-.8-.26c-1-.6-.69-1.87-.07-2.7L25,64V56.38a1.92,1.92,0,0,1,1.71-2.07m0-2h0A3.58,3.58,0,0,0,24,53.64a4.29,4.29,0,0,0-1,2.74v7.07L20.39,67.7A4.4,4.4,0,0,0,19.55,71a3.28,3.28,0,0,0,1.54,2.18,3.51,3.51,0,0,0,1.84.55c2.1,0,3.25-2,3.63-2.66l.51-.86V93.88a1.34,1.34,0,0,0,0,.2,4.08,4.08,0,0,0,6.57,3.21,4,4,0,0,0,2.36.76A4.07,4.07,0,0,0,40.07,94a.76.76,0,0,0,0-.15V76a3.11,3.11,0,0,0,.43,0,3.71,3.71,0,0,0,3.1-1.68h.59v-18a3.91,3.91,0,0,0-3.72-4.07Z"/></g><path id="_88996520" data-name=" 88996520" class="cls-4" d="M33.59,42.78a5,5,0,1,0,5,5,5,5,0,0,0-5-5Z"/><g id="_88996136" data-name=" 88996136"><path class="cls-4" d="M49.39,93.7a2.92,2.92,0,0,1-2.68-1.88,4.92,4.92,0,0,1,.08-3.16l2.07-8.27a3.46,3.46,0,0,1,3.4-3h9.49v-2.9h-6a3.2,3.2,0,0,1,0-6.39h6V62.57a2.93,2.93,0,0,1,3.21-3h5.59a2.93,2.93,0,0,1,3.21,3v19a2.93,2.93,0,0,1-3.21,3H54.27l-1.34,5.72c-.39,1.3-.82,2.43-2.09,3A3.24,3.24,0,0,1,49.39,93.7Z"/><path class="cls-1" d="M70.54,61c.94,0,1.72.39,1.72,1.53,0,5.53,0,11.44,0,17.09h0v1.87c0,1.14-.78,1.54-1.72,1.54H53.17l-.12.12L51.47,90c-.36,1.18-.66,1.73-1.29,2a1.81,1.81,0,0,1-.79.2,1.4,1.4,0,0,1-1.29-1,3.49,3.49,0,0,1,.12-2.13l2.09-8.36a2,2,0,0,1,1.95-1.84h11V73H55.71a1.7,1.7,0,0,1,0-3.39h7.54V62.57C63.24,61.43,64,61,65,61h5.59m0-3H65a4.42,4.42,0,0,0-4.71,4.53v4.06H52.7v1.1a4.7,4.7,0,0,0,.27,7.4l.11.79h-.82a5,5,0,0,0-4.88,4.19L45.33,88.3a6.33,6.33,0,0,0,0,4.1,4.37,4.37,0,0,0,4.06,2.8,4.76,4.76,0,0,0,2.12-.51,5.83,5.83,0,0,0,2.83-3.87l0-.09,0-.09,1.07-4.58H70.54a4.43,4.43,0,0,0,4.72-4.54V76.66h0V62.57A4.43,4.43,0,0,0,70.54,58Z"/></g><g id="_88996208" data-name=" 88996208"><path class="cls-4" d="M67.49,50.14a5,5,0,1,1-5,5,5,5,0,0,1,5-5Z"/></g><path id="_88996064" data-name=" 88996064" class="cls-4" d="M74.54,68A14.4,14.4,0,1,1,54.11,85.25h2.18A12.35,12.35,0,1,0,74.54,70.42V68Z"/><path id="_88995992" data-name=" 88995992" class="cls-5" d="M50.1,51.53v6.55l-2.1-.9,4.21,8.35,4.21-4.75-2.11-.9V53.33l-4.21-1.8Z"/></g></svg>