<svg xmlns="http://www.w3.org/2000/svg" viewBox="0 0 106 108.98"><defs><style>.cls-1,.cls-3,.cls-4{fill:#00ae5a;}.cls-2{fill:#fff;}.cls-2,.cls-3{fill-rule:evenodd;}.cls-4{stroke:#fff;stroke-miterlimit:10;stroke-width:4px;}.cls-5{fill:#fafafa;}</style></defs><title>do-3</title><g id="do-bg"><path class="cls-1" d="M50,109h0A50,50,0,1,0,0,59a50,50,0,0,0,50,50"/></g><g id="queue"><path id="_88998152" data-name=" 88998152" class="cls-2" d="M27.47,55.94l.29-.53h0a1.69,1.69,0,0,0,2.94,1.68h0l1.14-2h0l-1.44,2.53,2.13-3.73h0l2.73-4.8h0a1.7,1.7,0,0,0-3-1.68h0l-4.85,8.53Z"/><path id="_88998080" data-name=" 88998080" class="cls-2" d="M28.52,57.89l-.44-.42h0A1.7,1.7,0,0,0,30.43,55h0l-1.66-1.6h0l2.1,2-3.09-3h0l-4-3.83h0a1.69,1.69,0,0,0-2.34,2.45h0Z"/><path id="_88997984" data-name=" 88997984" class="cls-2" d="M33.55,35.63a5,5,0,1,1-5,5,5,5,0,0,1,5-5Z"/><path id="_88997912" data-name=" 88997912" class="cls-2" d="M36.39,68.78a1.74,1.74,0,0,0,1.67-1.9V48.07c0-1.14-.77-1.54-1.71-1.54H34c-.94,0-1.71.4-1.71,1.54V68.78h0v17.6a2.08,2.08,0,0,0,4.15,0V68.78Z"/><path id="_88997840" data-name=" 88997840" class="cls-3" d="M33.92,58.06v6.59h0a2.39,2.39,0,0,0,2.4,2.7,2.65,2.65,0,0,0,2.76-2.7h0v-2.3h0V53.77h0V48.25h0v-.06H33.92v.06h0v9.81Z"/><path id="_88997768" data-name=" 88997768" class="cls-2" d="M34.67,58v6.6h0a1.7,1.7,0,0,0,3.39,0h0V62.31h0V53.73h0V48.21h0a1.7,1.7,0,0,0-3.39,0h0V58Z"/><path id="_88997600" data-name=" 88997600" class="cls-2" d="M49.69,35.63a5,5,0,1,1-5,5,5,5,0,0,1,5-5Z"/><path id="_88997528" data-name=" 88997528" class="cls-2" d="M50.79,68.78a1.74,1.74,0,0,0,1.67-1.9V48.07c0-1.14-.77-1.54-1.71-1.54h-2.4c-.94,0-1.71.4-1.71,1.54V68.78h0v17.6a2.08,2.08,0,0,0,4.15,0V68.78Z"/><path id="_88997456" data-name=" 88997456" class="cls-3" d="M48.32,58.06v6.59h0a2.39,2.39,0,0,0,2.4,2.7,2.65,2.65,0,0,0,2.76-2.7h0v-2.3h0V53.77h0V48.25h0v-.06H48.32v.06h0v9.81Z"/><path id="_88997384" data-name=" 88997384" class="cls-2" d="M49.07,58v6.6h0a1.7,1.7,0,0,0,3.39,0h0V62.31h0V53.73h0V48.21h0a1.7,1.7,0,0,0-3.39,0h0V58Z"/><path id="_88997288" data-name=" 88997288" class="cls-2" d="M64.09,35.63a5,5,0,1,1-5,5,5,5,0,0,1,5-5Z"/><path id="_88997216" data-name=" 88997216" class="cls-2" d="M65.19,68.78a1.74,1.74,0,0,0,1.67-1.9V48.07c0-1.14-.77-1.54-1.71-1.54h-2.4c-.94,0-1.71.4-1.71,1.54V68.78h0v17.6a2.08,2.08,0,0,0,4.15,0V68.78Z"/><path id="_88997144" data-name=" 88997144" class="cls-3" d="M62.72,58.06v6.59h0a2.39,2.39,0,0,0,2.4,2.7,2.65,2.65,0,0,0,2.76-2.7h0v-2.3h0V53.77h0V48.25h0v-.06H62.72v.06h0v9.81Z"/><path id="_88997072" data-name=" 88997072" class="cls-2" d="M63.47,58v6.6h0a1.7,1.7,0,0,0,3.39,0h0V62.31h0V53.73h0V48.21h0a1.7,1.7,0,0,0-3.39,0h0V58Z"/></g><g id="correct"><path class="cls-4" d="M85.83,2A18.17,18.17,0,1,0,104,20.17,18.19,18.19,0,0,0,85.83,2Z"/><path class="cls-5" d="M95,16.32,85.2,26.16a1.51,1.51,0,0,1-1.07.44,1.53,1.53,0,0,1-1.07-.44l-4.92-4.92a1.51,1.51,0,0,1,0-2.14,1.5,1.5,0,0,1,2.14,0L84.13,23l8.77-8.77a1.5,1.5,0,0,1,2.14,0A1.51,1.51,0,0,1,95,16.32Z"/></g></svg>