<svg xmlns="http://www.w3.org/2000/svg" viewBox="0 0 106 108.98"><defs><style>.cls-1,.cls-2{fill:#00ae5a;}.cls-2,.cls-4{stroke:#fff;}.cls-2{stroke-miterlimit:10;stroke-width:4px;}.cls-3{fill:#fafafa;}.cls-4{fill:none;stroke-width:2px;}.cls-5{fill:#fff;}</style></defs><title>do-4</title><g id="do-bg"><path class="cls-1" d="M50,109h0A50,50,0,1,0,0,59a50,50,0,0,0,50,50"/></g><g id="correct"><path class="cls-2" d="M85.83,2A18.17,18.17,0,1,0,104,20.17,18.19,18.19,0,0,0,85.83,2Z"/><path class="cls-3" d="M95,16.32,85.2,26.16a1.51,1.51,0,0,1-1.07.44,1.53,1.53,0,0,1-1.07-.44l-4.92-4.92a1.51,1.51,0,0,1,0-2.14,1.5,1.5,0,0,1,2.14,0L84.13,23l8.77-8.77a1.5,1.5,0,0,1,2.14,0A1.51,1.51,0,0,1,95,16.32Z"/></g><g id="baggage"><rect id="_88994672" data-name=" 88994672" class="cls-4" x="33.14" y="41.24" width="31.34" height="44.32" rx="4.41"/><circle id="_88994600" data-name=" 88994600" class="cls-5" cx="38.01" cy="88.37" r="1.8"/><circle id="_88994528" data-name=" 88994528" class="cls-5" cx="59.61" cy="88.37" r="1.8"/><path id="_88994432" data-name=" 88994432" class="cls-4" d="M37.55,48.44H60.07a4.42,4.42,0,0,1,4.41,4.41v4.88H33.14V52.85a4.43,4.43,0,0,1,4.41-4.41Z"/><path id="_88994360" data-name=" 88994360" class="cls-4" d="M44.52,32h8.59a4,4,0,0,1,3.94,3.95v5.34H40.57V35.9A4,4,0,0,1,44.52,32Z"/><path id="_88994288" data-name=" 88994288" class="cls-5" d="M41.38,66.69v8.25H39.1V69.53a6.13,6.13,0,0,1-1.07.68,7.58,7.58,0,0,1-1.29.5V68.86A5.46,5.46,0,0,0,38.52,68a3.59,3.59,0,0,0,1-1.28Zm3.37.14H50.1v1.79H46.48l-.2,1.22a3.19,3.19,0,0,1,.75-.26,3,3,0,0,1,.72-.09,2.7,2.7,0,0,1,2,.73,2.47,2.47,0,0,1,.76,1.86,3.18,3.18,0,0,1-.39,1.51A2.62,2.62,0,0,1,49,74.69a3.82,3.82,0,0,1-1.83.39,5.49,5.49,0,0,1-1.38-.15,2.91,2.91,0,0,1-1-.46,2.6,2.6,0,0,1-.65-.68,3.48,3.48,0,0,1-.42-1L46,72.59a1.44,1.44,0,0,0,.39.83,1,1,0,0,0,.72.28,1,1,0,0,0,.78-.35,1.59,1.59,0,0,0,.31-1.07,1.51,1.51,0,0,0-.31-1.06,1.06,1.06,0,0,0-.83-.34,1.47,1.47,0,0,0-.63.16,1.93,1.93,0,0,0-.49.42L44,71.19l.71-4.36Zm6.74,2.7h1.67v2l1.76-2h2.22l-2,2,2,3.37h-2L54,72.71l-.87.91v1.32H51.49V69.53ZM60.4,71h1.41v3.87a1.75,1.75,0,0,1-.16.71,1.63,1.63,0,0,1-.42.54,1.55,1.55,0,0,1-.66.3,4.22,4.22,0,0,1-.92.09A2.68,2.68,0,0,1,58,76.17a1.15,1.15,0,0,1-.44-.94,1.56,1.56,0,0,1,0-.2l1.46.16a.41.41,0,0,0,.17.28.69.69,0,0,0,.41.12.63.63,0,0,0,.49-.18.9.9,0,0,0,.16-.6v-.59a1.83,1.83,0,0,1-.44.38,1.66,1.66,0,0,1-.75.18,1.47,1.47,0,0,1-1.27-.69,2.16,2.16,0,0,1-.35-1.28,2,2,0,0,1,.45-1.4,1.49,1.49,0,0,1,1.15-.48,1.56,1.56,0,0,1,.76.16,1.54,1.54,0,0,1,.55.51V71ZM59,72.92a1,1,0,0,0,.18.63.59.59,0,0,0,.48.2.61.61,0,0,0,.47-.21.91.91,0,0,0,.19-.64,1,1,0,0,0-.2-.65.62.62,0,0,0-.49-.23.57.57,0,0,0-.46.21,1.13,1.13,0,0,0-.17.69Z"/></g></svg>