<svg xmlns="http://www.w3.org/2000/svg" viewBox="0 0 106 108.98"><defs><style>.cls-1,.cls-2{fill:#00ae5a;}.cls-2,.cls-5{stroke:#fff;stroke-miterlimit:10;}.cls-2{stroke-width:4px;}.cls-3{fill:#fafafa;}.cls-4{fill:#fff;fill-rule:evenodd;}.cls-5{fill:none;stroke-linecap:round;stroke-width:3.44px;}</style></defs><title>do-5</title><g id="do-bg"><path class="cls-1" d="M50,109h0A50,50,0,1,0,0,59a50,50,0,0,0,50,50"/></g><g id="correct"><path class="cls-2" d="M85.83,2A18.17,18.17,0,1,0,104,20.17,18.19,18.19,0,0,0,85.83,2Z"/><path class="cls-3" d="M95,16.32,85.2,26.16a1.51,1.51,0,0,1-1.07.44,1.53,1.53,0,0,1-1.07-.44l-4.92-4.92a1.51,1.51,0,0,1,0-2.14,1.5,1.5,0,0,1,2.14,0L84.13,23l8.77-8.77a1.5,1.5,0,0,1,2.14,0A1.51,1.51,0,0,1,95,16.32Z"/></g><g id="customer_care" data-name="customer care"><path id="_88922840" data-name=" 88922840" class="cls-4" d="M49,25.41A11.17,11.17,0,1,1,37.79,36.58,11.18,11.18,0,0,1,49,25.41Z"/><path id="_88922768" data-name=" 88922768" class="cls-4" d="M39,84V59.76H37.43V84H29.91V55.55C29.91,53,31.63,51,33.72,51H64.19C66.28,51,68,53,68,55.54V84H60.59V59.76H59V84Zm7-15.24V62.61L49,64.31l2.95-1.71v6.18l5.26,3L54.29,73.5V77L49,73.9l-5.27,3v-3.4l-3-1.71,5.35-3.07Zm1.43-.85V65.2l1.46.85,1.49-.85v6.13L49.3,72l1.45.84,1.16-.67V70.48l2.36,1.36-1.48.86v1.68l-5.29-3V70L46,70.85v1.32l1.45.84-2.37,1.37V72.69l-1.47-.84L49,68.78l1.18.68V67.75L49,67.07l-1.47.84Z"/><line class="cls-5" x1="17.5" y1="87.98" x2="80.5" y2="87.98"/></g></svg>