<svg xmlns="http://www.w3.org/2000/svg" viewBox="0 0 106 108.98"><defs><style>.cls-1,.cls-2{fill:#00ae5a;}.cls-2,.cls-4,.cls-5,.cls-6{stroke:#fff;}.cls-2,.cls-6{stroke-miterlimit:10;}.cls-2{stroke-width:4px;}.cls-3{fill:#fafafa;}.cls-4,.cls-5,.cls-6{fill:none;}.cls-4{stroke-width:2px;}.cls-6{stroke-width:0.75px;}.cls-7{fill:#fff;}</style></defs><title>do-6</title><g id="do-bg"><path class="cls-1" d="M50,109h0A50,50,0,1,0,0,59a50,50,0,0,0,50,50"/></g><g id="correct"><path class="cls-2" d="M85.83,2A18.17,18.17,0,1,0,104,20.17,18.19,18.19,0,0,0,85.83,2Z"/><path class="cls-3" d="M95,16.32,85.2,26.16a1.51,1.51,0,0,1-1.07.44,1.53,1.53,0,0,1-1.07-.44l-4.92-4.92a1.51,1.51,0,0,1,0-2.14,1.5,1.5,0,0,1,2.14,0L84.13,23l8.77-8.77a1.5,1.5,0,0,1,2.14,0A1.51,1.51,0,0,1,95,16.32Z"/></g><g id="belongings"><rect id="_88923992" data-name=" 88923992" class="cls-4" x="56.88" y="61.17" width="25.97" height="16.23" rx="1.97"/><path id="_88923920" data-name=" 88923920" class="cls-5" d="M60.07,56.05l20.5,4.29a2.22,2.22,0,0,1,1.27.83H58.23V57.63a1.5,1.5,0,0,1,1.84-1.58Z"/><path id="_88923848" data-name=" 88923848" class="cls-6" d="M61,58.19l15.79,3H60V59a.78.78,0,0,1,1-.78Z"/><rect id="_88923776" data-name=" 88923776" class="cls-7" x="66.84" y="64.48" width="6.07" height="1.04" rx="0.24"/><path id="_88923704" data-name=" 88923704" class="cls-7" d="M68.09,69.61l.61.52a.91.91,0,0,0,.65-1V67.31H67.07a.24.24,0,0,1-.24-.24v-.55a.25.25,0,0,1,.24-.25h5.59a.25.25,0,0,1,.24.25v.55a.24.24,0,0,1-.24.24H70.39v2.3A1.59,1.59,0,0,1,69.74,71l2.59,2.23a.24.24,0,0,1,0,.34L72,74a.25.25,0,0,1-.34,0l-4.24-3.65a.25.25,0,0,1,0-.34l.37-.42A.24.24,0,0,1,68.09,69.61Z"/><rect id="_88923584" data-name=" 88923584" class="cls-4" x="21.48" y="39.17" width="31.34" height="44.32" rx="4.41"/><circle id="_88923512" data-name=" 88923512" class="cls-7" cx="26.35" cy="86.29" r="1.8"/><circle id="_88923440" data-name=" 88923440" class="cls-7" cx="47.95" cy="86.29" r="1.8"/><path id="_88923344" data-name=" 88923344" class="cls-4" d="M25.89,46.37H48.41a4.43,4.43,0,0,1,4.41,4.41v4.87H21.48V50.78a4.42,4.42,0,0,1,4.41-4.41Z"/><path id="_88923272" data-name=" 88923272" class="cls-4" d="M32.86,29.88h8.59a4,4,0,0,1,3.94,3.95v5.34H28.91V33.83A4,4,0,0,1,32.86,29.88Z"/></g></svg>