<svg xmlns="http://www.w3.org/2000/svg" viewBox="0 0 106 108.98"><defs><style>.cls-1,.cls-2{fill:#00ae5a;}.cls-2,.cls-4,.cls-5{stroke:#fff;}.cls-2,.cls-4{stroke-miterlimit:10;}.cls-2{stroke-width:4px;}.cls-3{fill:#fafafa;}.cls-4,.cls-5{fill:none;}.cls-4{stroke-width:1.92px;}.cls-5{stroke-linecap:round;stroke-linejoin:round;stroke-width:2px;}.cls-6{fill:#fff;}</style></defs><title>do-7</title><g id="do-bg"><path class="cls-1" d="M50,109h0A50,50,0,1,0,0,59a50,50,0,0,0,50,50"/></g><g id="correct"><path class="cls-2" d="M85.83,2A18.17,18.17,0,1,0,104,20.17,18.19,18.19,0,0,0,85.83,2Z"/><path class="cls-3" d="M95,16.32,85.2,26.16a1.51,1.51,0,0,1-1.07.44,1.53,1.53,0,0,1-1.07-.44l-4.92-4.92a1.51,1.51,0,0,1,0-2.14,1.5,1.5,0,0,1,2.14,0L84.13,23l8.77-8.77a1.5,1.5,0,0,1,2.14,0A1.51,1.51,0,0,1,95,16.32Z"/></g><g id="qr-tickets"><polyline class="cls-4" points="61.58 46.98 82 46.98 82 75.98 18 75.98 18 46.98 24 46.98"/><line class="cls-5" x1="24" y1="55.98" x2="51" y2="55.98"/><line class="cls-5" x1="24" y1="63.98" x2="39" y2="63.98"/><path class="cls-6" d="M67.4,55.08v1.4H66v-1.4ZM66,63.32v2h1.4v-2Zm4.2,7.61v-1.4H68.8V68.12H67.4v2.81ZM73,60.52H68.8v1.4H73Zm0,2.8h2v-1.4H73Zm0,2v1.4h3.36v-3.4H75v2ZM68.8,53H67.4v2.1h1.4Zm-1.4,6.31h1.4V56.48H67.4v1.41H66v4h1.4Zm-9,1.23v2.8h1.4v-1.4h2.1v-1.4Zm10.37,2.8v-1.4H67.4v1.4Zm2.81,1.4H73v-1.4h-1.4ZM75,61.92h1.4v-1.4H75Zm-4.77,1.4H68.8v2H67.4v1.4h2.8ZM66,68.12h1.4v-1.4H66Zm4.2-1.4v1.4H73v-1.4Zm4.21,2.81V68.12H73v1.41Zm2,1.4v-1.4h-2v1.4Zm-4.76,0H73v-1.4h-1.4Zm-6.87-9v-1.4H63.33v1.4h-1.4v1.4H66v-1.4Zm0-2.63H58.43V53h6.31Zm-1.41-4.91h-3.5v3.51h3.5Zm-1,1h-1.4v1.4h1.4ZM76.37,53v6.31H70.06V53ZM75,54.38h-3.5v3.51H75Zm-1,1h-1.4v1.4h1.4ZM58.43,64.62h6.31v6.31H58.43Zm1.4,4.91h3.5V66h-3.5Zm1.05-1.06h1.4v-1.4h-1.4Z"/><rect id="_87878240" data-name=" 87878240" class="cls-6" x="26.35" y="36.29" width="6.55" height="15.38" rx="2.47"/><rect id="_87781808" data-name=" 87781808" class="cls-6" x="33.4" y="33.35" width="7.8" height="18.32" rx="2.47"/><rect id="_87782864" data-name=" 87782864" class="cls-6" x="41.7" y="31.49" width="8.59" height="20.18" rx="2.47"/><rect id="_89220816" data-name=" 89220816" class="cls-6" x="50.8" y="34.45" width="7.33" height="17.22" rx="2.47"/></g></svg>