<svg xmlns="http://www.w3.org/2000/svg" viewBox="0 0 106 108.98"><defs><style>.cls-1,.cls-2{fill:#00ae5a;}.cls-2{stroke:#fff;stroke-miterlimit:10;stroke-width:4px;}.cls-3{fill:#fafafa;}.cls-4{fill:#fff500;}.cls-5{fill:#fff;fill-rule:evenodd;}</style></defs><title>do-8</title><g id="do-bg"><path class="cls-1" d="M50,109h0A50,50,0,1,0,0,59a50,50,0,0,0,50,50"/></g><g id="correct"><path class="cls-2" d="M85.83,2A18.17,18.17,0,1,0,104,20.17,18.19,18.19,0,0,0,85.83,2Z"/><path class="cls-3" d="M95,16.32,85.2,26.16a1.51,1.51,0,0,1-1.07.44,1.53,1.53,0,0,1-1.07-.44l-4.92-4.92a1.51,1.51,0,0,1,0-2.14,1.5,1.5,0,0,1,2.14,0L84.13,23l8.77-8.77a1.5,1.5,0,0,1,2.14,0A1.51,1.51,0,0,1,95,16.32Z"/></g><g id="yellow_line" data-name="yellow line"><rect id="_89216376" data-name=" 89216376" class="cls-4" x="12.57" y="44.76" width="71.61" height="5.16"/><path id="_89216304" data-name=" 89216304" class="cls-5" d="M70.19,54.12c4.1,1.62,4.1,11.31,0,21.64a48.16,48.16,0,0,1-3.06,6.36l-13.89-5.5a49,49,0,0,1,2.13-6.73C59.46,59.56,66.1,52.49,70.19,54.12ZM66,84c-3.62,5.53-7.73,8.65-10.6,7.52S51.65,85.3,52.8,78.8L66,84Z"/><path id="_89216232" data-name=" 89216232" class="cls-5" d="M26.57,54.12c-4.09,1.62-4.1,11.31,0,21.64a48.16,48.16,0,0,0,3.06,6.36l13.89-5.5a49,49,0,0,0-2.13-6.73C37.3,59.56,30.66,52.49,26.57,54.12ZM30.79,84c3.62,5.53,7.73,8.65,10.6,7.52S45.11,85.3,44,78.8L30.79,84Z"/></g></svg>