<svg xmlns="http://www.w3.org/2000/svg" viewBox="0 0 106 108.98"><defs><style>.cls-1,.cls-2,.cls-5{fill:#00ae5a;}.cls-2{stroke:#fff;stroke-miterlimit:10;stroke-width:4px;}.cls-3{fill:#fafafa;}.cls-4{fill:#fff;}.cls-4,.cls-5{fill-rule:evenodd;}</style></defs><title>do-9</title><g id="do-bg"><path class="cls-1" d="M50,109h0A50,50,0,1,0,0,59a50,50,0,0,0,50,50"/></g><g id="correct"><path class="cls-2" d="M85.83,2A18.17,18.17,0,1,0,104,20.17,18.19,18.19,0,0,0,85.83,2Z"/><path class="cls-3" d="M95,16.32,85.2,26.16a1.51,1.51,0,0,1-1.07.44,1.53,1.53,0,0,1-1.07-.44l-4.92-4.92a1.51,1.51,0,0,1,0-2.14,1.5,1.5,0,0,1,2.14,0L84.13,23l8.77-8.77a1.5,1.5,0,0,1,2.14,0A1.51,1.51,0,0,1,95,16.32Z"/></g><g id="elderly"><path id="_78891672" data-name=" 78891672" class="cls-4" d="M23.67,45.05a5,5,0,1,0,5,5A5,5,0,0,0,23.67,45.05Z"/><path id="_78891600" data-name=" 78891600" class="cls-4" d="M26.86,62.48h-.13a2.25,2.25,0,0,0,0-4.49v-.7c0-1-.78-1.35-1.72-1.35H22.62c-.95,0-1.72.34-1.72,1.35v15.1h-.58l-3.24,10h5.5v8.52s0,.06,0,.09a2,2,0,0,0,2.08,1.81A2,2,0,0,0,26.73,91a.34.34,0,0,0,0-.1V82.39h5.6l-3.24-10a5.19,5.19,0,0,0,3.58-4.76c0-2.85-2.59-5.16-5.8-5.16Z"/><path id="_78891528" data-name=" 78891528" class="cls-5" d="M25,66.08v5.8h0a2.22,2.22,0,0,1-2.41,2.37,2.51,2.51,0,0,1-2.75-2.37h0v-2h0V62.3h0V57.44h0v0H25v0h0v8.64Z"/><path id="_78891456" data-name=" 78891456" class="cls-4" d="M24.29,66v5.8h0a1.71,1.71,0,0,1-3.39,0h0v-2h0V62.27h0V57.41h0a1.71,1.71,0,0,1,3.39,0h0Z"/><path id="_78891336" data-name=" 78891336" class="cls-4" d="M52.35,46.47a5,5,0,1,0,5,5A5.05,5.05,0,0,0,52.35,46.47Z"/><path id="_78891264" data-name=" 78891264" class="cls-4" d="M42.49,73.15a1.74,1.74,0,0,1-1.68-1.9l3-14.13c0-1.14.77-1.53,1.72-1.53h2.39c.94,0,1.72.39,1.72,1.53l-3,14.13v1.9h0v17.6a2.08,2.08,0,0,1-4.15,0V73.15Z"/><path id="_78891192" data-name=" 78891192" class="cls-4" d="M36.33,62.11l0,.18h0L35.89,64l-.39,1.66h0l0,.18h0L35,67.66h0a1.69,1.69,0,0,0,3.29.79h0l.44-1.87.88-3.68L40.08,61h0a1.7,1.7,0,0,0-3.3-.79h0l-.45,1.87Z"/><path id="_78891120" data-name=" 78891120" class="cls-4" d="M40.91,61.31l.17-.08h0l1.54-.74,1.53-.75h0l.17-.08h0l1.73-.84h0a1.7,1.7,0,0,0-1.48-3h0l-1.73.84-3.41,1.65-1.73.83h0a1.67,1.67,0,0,0-.78,2.25,1.7,1.7,0,0,0,2.25.8h0l1.73-.84Z"/><path id="_78891024" data-name=" 78891024" class="cls-4" d="M54.38,65.34h.18l1.7.12,1.71.11h.18l1.92.12h0a1.69,1.69,0,0,0,.22-3.38h0l-1.91-.13L54.6,62l-1.92-.13h0a1.69,1.69,0,0,0-.22,3.38h0l1.92.12Z"/><path id="_78890952" data-name=" 78890952" class="cls-4" d="M52.82,61l-.11-.15h0l-1-1.39-1-1.39h0l-.11-.15h0L49.5,56.32h0a1.69,1.69,0,0,0-2.75,2h0l1.12,1.56,2.2,3.09,1.11,1.56h0a1.69,1.69,0,0,0,2.75-2h0L52.82,61h0Z"/><path id="_78890856" data-name=" 78890856" class="cls-4" d="M58.13,65.64h0V92.81h1V65.65h0a2.61,2.61,0,0,1,5.21.24,2.73,2.73,0,0,1-1.2,2.27c-.77.48-.57,1.17,0,1.14a3.71,3.71,0,0,0,2.18-3.41,3.59,3.59,0,0,0-7.18-.25Z"/><path id="_78890784" data-name=" 78890784" class="cls-4" d="M75.39,42.1a4.79,4.79,0,1,1-4.79,4.79,4.8,4.8,0,0,1,4.79-4.79Z"/><path id="_79503928" data-name=" 79503928" class="cls-4" d="M75.08,90.65v.11a2,2,0,0,1-2,2c-1.09,0-2-1.4-2-2s0-.07,0-.1V56.83h-.69v13.4h0a1.61,1.61,0,0,1-3.22,0h0V55a1.83,1.83,0,0,1,1.63-2H81.92a1.83,1.83,0,0,1,1.63,2v7.25l2.8,4.57c.59.79.87,2-.07,2.56s-1.82,0-2.57-1.33L80.37,62.4V56.83h-.69V70h0V90.85a2,2,0,0,1-4,0v-.09h0V74h-.66V90.65Z"/><path id="_79503856" data-name=" 79503856" class="cls-4" d="M18.41,93.76H82.9a.9.9,0,0,1,.89.9h0a.9.9,0,0,1-.89.9H18.41a.91.91,0,0,1-.9-.9h0A.9.9,0,0,1,18.41,93.76Z"/></g></svg>