<svg xmlns="http://www.w3.org/2000/svg" viewBox="0 0 106 108.98"><defs><style>.cls-1{fill:#00ae5a;}.cls-2,.cls-3{fill:#d83431;}.cls-3,.cls-5,.cls-6,.cls-7,.cls-8,.cls-9{stroke:#fff;}.cls-3{stroke-miterlimit:10;stroke-width:4px;}.cls-4{fill:#fafafa;}.cls-10,.cls-5,.cls-6,.cls-7,.cls-8,.cls-9{fill:#fff;}.cls-5,.cls-6,.cls-7,.cls-8,.cls-9{stroke-linecap:round;stroke-linejoin:round;}.cls-5{stroke-width:1.65px;}.cls-6{stroke-width:1.97px;}.cls-7{stroke-width:2.18px;}.cls-8{stroke-width:2.43px;}.cls-9{stroke-width:2.76px;}.cls-10{fill-rule:evenodd;}</style></defs><title>dont-11</title><g id="do-bg"><path class="cls-1" d="M50,109h0A50,50,0,1,0,0,59a50,50,0,0,0,50,50"/></g><g id="dont-bg"><path class="cls-2" d="M50,109h0A50,50,0,1,0,0,59a50,50,0,0,0,50,50"/></g><g id="wrong"><path class="cls-3" d="M85.83,2A18.17,18.17,0,1,0,104,20.17,18.19,18.19,0,0,0,85.83,2Z"/><path class="cls-4" d="M92.56,24.29a1.49,1.49,0,0,1,0,2.12,1.47,1.47,0,0,1-1.06.44,1.45,1.45,0,0,1-1.06-.44L85.92,21.9l-4.51,4.51a1.45,1.45,0,0,1-1.06.44,1.47,1.47,0,0,1-1.06-.44,1.49,1.49,0,0,1,0-2.12l4.51-4.51-4.51-4.51a1.5,1.5,0,1,1,2.12-2.13l4.51,4.52,4.52-4.52a1.5,1.5,0,0,1,2.12,2.13l-4.51,4.51Z"/></g><g id="railway_track" data-name="railway track"><line class="cls-5" x1="40" y1="46.87" x2="59" y2="46.87"/><line class="cls-6" x1="33" y1="53.71" x2="67" y2="53.71"/><line class="cls-7" x1="29" y1="59.86" x2="71" y2="59.86"/><line class="cls-8" x1="24.5" y1="66.35" x2="75.5" y2="66.35"/><line class="cls-9" x1="19.5" y1="73.87" x2="80.5" y2="73.87"/><g id="_88998944" data-name=" 88998944"><path class="cls-10" d="M74.57,81.22a2.47,2.47,0,0,1-1.89-.8l-.06-.07L52.19,43.81a1.86,1.86,0,0,1-.1-1.67,1.89,1.89,0,0,1,1.29-1.07,3.22,3.22,0,0,1,.76-.09,2.33,2.33,0,0,1,2.21,1.32l20.16,36,0,0,.06.14A2,2,0,0,1,76.73,80a1.91,1.91,0,0,1-1.15,1A2.83,2.83,0,0,1,74.57,81.22Z"/><path class="cls-2" d="M54.14,42a1.32,1.32,0,0,1,1.29.73L75.68,78.88h0c.31.69.15,1-.47,1.21a1.82,1.82,0,0,1-.65.12,1.49,1.49,0,0,1-1.12-.44h0L53.06,43.32A.85.85,0,0,1,53.62,42h0a2.18,2.18,0,0,1,.52-.06m0-2a4.21,4.21,0,0,0-1,.12,2.84,2.84,0,0,0-1.82,4.2L71.69,80.74l.1.17.12.15a3.44,3.44,0,0,0,2.66,1.16A3.76,3.76,0,0,0,76,82a2.83,2.83,0,0,0,1.7-1.55,2.91,2.91,0,0,0-.13-2.33l-.12-.27-.07-.09L57.21,41.79A3.3,3.3,0,0,0,54.14,40Z"/></g><g id="_88999016" data-name=" 88999016"><path class="cls-10" d="M25.51,81.22a2.83,2.83,0,0,1-1-.19,1.94,1.94,0,0,1-1.23-1.3,1.63,1.63,0,0,1,.3-1.41l20.21-36.1A2.28,2.28,0,0,1,45.94,41a3.16,3.16,0,0,1,.76.09A1.89,1.89,0,0,1,48,42.14a1.86,1.86,0,0,1-.1,1.67A201.27,201.27,0,0,0,37.74,62,203.23,203.23,0,0,1,27.49,80.31l0,.06-.05,0A2.47,2.47,0,0,1,25.51,81.22Z"/><path class="cls-2" d="M45.94,42a2.18,2.18,0,0,1,.52.06h0A.85.85,0,0,1,47,43.32c-8.44,13.11-11.9,23.27-20.37,36.45h0a1.51,1.51,0,0,1-1.13.44,1.73,1.73,0,0,1-.64-.12c-.62-.24-.84-.79-.48-1.21h0L44.65,42.71A1.33,1.33,0,0,1,45.94,42m0-2h0a3.3,3.3,0,0,0-3.07,1.81l-20.14,36A2.58,2.58,0,0,0,22.3,80a2.93,2.93,0,0,0,1.83,2,3.8,3.8,0,0,0,1.38.26,3.42,3.42,0,0,0,2.65-1.15l.09-.1.08-.12a203,203,0,0,0,10.3-18.43,200.93,200.93,0,0,1,10.07-18l0,0,0-.05A2.86,2.86,0,0,0,47,40.1a4.29,4.29,0,0,0-1-.12Z"/></g><path class="cls-10" d="M60.78,85.16a3.4,3.4,0,0,1-3.07-1.94l-.06-.12L50.86,68.81l-6.8,14.3s0,.06-.05.12a3.42,3.42,0,0,1-6.29-.34,3.35,3.35,0,0,1,.13-2.6,1.5,1.5,0,0,1,.09-.18l8.44-17.78L43.89,47.2l-1.56,1.86a3,3,0,0,1-2,1h-.43a3.7,3.7,0,0,1-.69-.13l-.08,0-8-2.82a3,3,0,0,1,1-5.81,3.14,3.14,0,0,1,.91.14l6.12,2.17,4.11-4.9.09-.09.12-.12a3.13,3.13,0,0,1,1.91-1L48,37.07a5.31,5.31,0,0,1,.68,0,3.05,3.05,0,0,1,.87.11l8.26,1.59a3.37,3.37,0,0,1,.77.27l.19.11.2.13a2.83,2.83,0,0,1,.88.94.56.56,0,0,1,.05.08l4,7.45,0,.08a3,3,0,0,1-1.27,4,3.05,3.05,0,0,1-1.42.36,3,3,0,0,1-2.58-1.49l-3.39-6.28-3.15-.6,3,18.14s8.73,18.37,8.77,18.44a3.41,3.41,0,0,1-1.64,4.51,3.44,3.44,0,0,1-1.47.34Z"/><path class="cls-2" d="M48.66,38.13a2,2,0,0,1,.61.08h0l2.09.4,4.13.8,2.09.4h0a2,2,0,0,1,.48.18l.14.07.11.07a1.82,1.82,0,0,1,.59.64h0l1,1.88h0l.1.18.9,1.67.9,1.67.1.18h0l1,1.88h0A1.89,1.89,0,0,1,61.25,51a1.84,1.84,0,0,1-1.64-1h0l-1-1.87-2-3.7L56,43.34l-1.24-.23h0l-.2,0-1.86-.36-1.86-.36-.07,0,3.31,20.11.06,0v0l.33.69h0l8.32,17.52.06.12a2.28,2.28,0,0,1-1.1,3,2.35,2.35,0,0,1-1,.23,2.28,2.28,0,0,1-2.07-1.31s0-.07-.05-.1l-7.8-16.42-7.8,16.42,0,.1A2.3,2.3,0,0,1,41,84.05a2.36,2.36,0,0,1-1-.23,2.29,2.29,0,0,1-1.1-3l.06-.12,8.33-17.52h0l.3-.63-.21-1.29L44.6,44.63l-.34.41L43,46.49l-.13.16h0l-1.38,1.63h0a1.83,1.83,0,0,1-1.31.65H39.9a2.39,2.39,0,0,1-.45-.09h0l-2-.71-4-1.4-2-.71h0a1.88,1.88,0,0,1,.63-3.65,1.93,1.93,0,0,1,.62.11h0l2,.71h0l.2.06,1.78.64,1.79.63.19.07h0l.8.28.53-.63L42.72,41l1.37-1.64h0l.15-.14a2.17,2.17,0,0,1,1.3-.63l.75-.12,1.12-.19.75-.12a2.89,2.89,0,0,1,.5,0m0-2.22h0a5.07,5.07,0,0,0-.86.07l-.75.12-1.12.18-.75.13a4.31,4.31,0,0,0-2.52,1.26l-.11.11-.16.17L41,39.58l-2.24,2.67-1.33-.47-1.78-.63-.2-.07-2-.71-.14,0a3.84,3.84,0,0,0-1.22-.19,4.1,4.1,0,0,0-1.5,7.92l.13,0,2,.71,4,1.4,2,.71.14,0a4.57,4.57,0,0,0,.85.16h.67a4.12,4.12,0,0,0,2.77-1.33l0-.06,1.94,11.8.1.61h0s0,.07,0,.1L36.93,79.65a.66.66,0,0,0-.09.19,4.43,4.43,0,0,0-.16,3.43A4.52,4.52,0,0,0,45,83.7a1.26,1.26,0,0,0,.07-.16l5.77-12.15,5.77,12.15.09.19a4.53,4.53,0,0,0,8.16-3.92l-.08-.16L56.54,62.27l0-.1-.31-.64-2.7-16.41.66.13.2,0,.2,0,.09.17,2,3.7,1,1.88.07.12a4.08,4.08,0,0,0,3.53,2,4.15,4.15,0,0,0,2-.49,4.11,4.11,0,0,0,1.74-5.42.75.75,0,0,0-.07-.12l-1-1.88-.09-.18-.91-1.67L62,41.78l-.1-.18-1-1.88a.83.83,0,0,0-.07-.13,4.18,4.18,0,0,0-1.2-1.28l-.22-.14,0,0L59,38a4,4,0,0,0-.89-.32l-.15,0-2.09-.4-4.13-.8-2-.39a4.42,4.42,0,0,0-1.1-.13Z"/><path class="cls-10" d="M45.82,38.28a6.71,6.71,0,1,1,6.71-6.71,6.72,6.72,0,0,1-6.71,6.71Z"/><path class="cls-2" d="M45.82,26a5.6,5.6,0,1,1,0,11.19h0a5.6,5.6,0,0,1,0-11.19h0m0-2.22h0A7.82,7.82,0,0,0,38,31.57a7.82,7.82,0,1,0,7.81-7.81Z"/></g></svg>