<svg xmlns="http://www.w3.org/2000/svg" viewBox="0 0 106 108.98"><defs><style>.cls-1,.cls-2{fill:#d83431;}.cls-2{stroke:#fff;stroke-miterlimit:10;stroke-width:4px;}.cls-3{fill:#fafafa;}.cls-4{fill:#fff;fill-rule:evenodd;}</style></defs><title>dont-8</title><g id="dont-bg"><path class="cls-1" d="M50,109h0A50,50,0,1,0,0,59a50,50,0,0,0,50,50"/></g><g id="wrong"><path class="cls-2" d="M85.83,2A18.17,18.17,0,1,0,104,20.17,18.19,18.19,0,0,0,85.83,2Z"/><path class="cls-3" d="M92.56,24.29a1.49,1.49,0,0,1,0,2.12,1.47,1.47,0,0,1-1.06.44,1.45,1.45,0,0,1-1.06-.44L85.92,21.9l-4.51,4.51a1.45,1.45,0,0,1-1.06.44,1.47,1.47,0,0,1-1.06-.44,1.49,1.49,0,0,1,0-2.12l4.51-4.51-4.51-4.51a1.5,1.5,0,1,1,2.12-2.13l4.51,4.52,4.52-4.52a1.5,1.5,0,0,1,2.12,2.13l-4.51,4.51Z"/></g><g id="garbage"><path id="_89217144" data-name=" 89217144" class="cls-4" d="M54.88,29.12a5,5,0,1,0,5,5A5,5,0,0,0,54.88,29.12Z"/><path id="_89217072" data-name=" 89217072" class="cls-4" d="M55.2,80.2v.12a2.08,2.08,0,0,0,4.15,0V44.61h.73v14.1h0a1.7,1.7,0,0,0,3.39,0h0v-16a1.92,1.92,0,0,0-1.72-2.07H48a1.92,1.92,0,0,0-1.72,2.07v7.63l-2.94,4.81c-.62.83-.91,2.1.07,2.7s1.92,0,2.7-1.4l3.52-6V44.61h.72V58.45h0v22a2.08,2.08,0,0,0,4.15,0v-.09h0V62.73h.7V80.2Z"/><path id="_89216976" data-name=" 89216976" class="cls-4" d="M30.78,68.68l1.57-.7,1.18,2.63,3.1-1.4-1.19-2.63,1.46-.66a1.13,1.13,0,0,1,1.45.55l4.9,9A1.06,1.06,0,0,1,42.7,77l-7.39,3.34a1.09,1.09,0,0,1-1.45-.55l-3.62-9.61a1.12,1.12,0,0,1,.54-1.45Z"/></g></svg>