<svg xmlns="http://www.w3.org/2000/svg" viewBox="0 0 106 108.98"><defs><style>.cls-1,.cls-8{fill:#d83431;}.cls-2,.cls-3,.cls-7{fill:none;}.cls-2,.cls-3,.cls-7,.cls-8{stroke:#fff;}.cls-3,.cls-7{stroke-width:1.81px;}.cls-4,.cls-6{fill:#fff;}.cls-5{fill:#c7352d;}.cls-6{fill-rule:evenodd;}.cls-7{stroke-linecap:round;stroke-linejoin:round;}.cls-8{stroke-miterlimit:10;stroke-width:4px;}.cls-9{fill:#fafafa;}</style></defs><title>dont-1</title><g id="dont-bg"><path class="cls-1" d="M50,109h0A50,50,0,1,0,0,59a50,50,0,0,0,50,50"/></g><g id="_1" data-name="1"><path id="_89717920" data-name=" 89717920" class="cls-2" d="M28.34,27.81H48.08a4.84,4.84,0,0,1,4.7,4.7L53.72,50h-31l.94-17.48A4.84,4.84,0,0,1,28.34,27.81Z"/><path id="_89717848" data-name=" 89717848" class="cls-3" d="M26.51,25.51H49.92a5.76,5.76,0,0,1,5.58,5.58l2.23,29.74a5.45,5.45,0,0,1-5.57,5.57H24.27a5.45,5.45,0,0,1-5.57-5.57l2.23-29.74A5.76,5.76,0,0,1,26.51,25.51Z"/><circle id="_89717776" data-name=" 89717776" class="cls-4" cx="25.82" cy="60.77" r="3.13"/><circle id="_89717704" data-name=" 89717704" class="cls-4" cx="50.61" cy="60.77" r="3.13"/><rect id="_89717632" data-name=" 89717632" class="cls-5" x="55.3" y="53.33" width="6.73" height="8.62" transform="translate(-15.55 93.08) rotate(-70.02)"/><path id="_89717560" data-name=" 89717560" class="cls-6" d="M64.51,58.71l.11-.13h0l1-1.18,1-1.18h0l.11-.13h0l1.12-1.34h0a1.53,1.53,0,0,0-2.35-2h0l-1.12,1.33-2.2,2.63L61,58.07h0a1.53,1.53,0,0,0,2.35,2h0l1.12-1.33Z"/><path id="_89717488" data-name=" 89717488" class="cls-6" d="M78.37,55.46l.08.14h0L79.18,57l.74,1.36h0l.08.15h0L80.82,60h0a1.53,1.53,0,0,1-2.7,1.46h0l-.82-1.53-1.63-3-.83-1.53h0a1.53,1.53,0,0,1,2.69-1.45h0l.83,1.54h0Z"/><path id="_89717416" data-name=" 89717416" class="cls-6" d="M66.88,41.87a4.56,4.56,0,1,1-4.56,4.56A4.56,4.56,0,0,1,66.88,41.87Z"/><path id="_89717344" data-name=" 89717344" class="cls-6" d="M73.69,72,70.54,52.92c-.16-1-.91-1.26-1.76-1.12l-.61.1-.91.15-.61.1c-.84.14-1.48.61-1.31,1.62l2.76,16.8.18,1.08v0L71.09,74s2.84-.82,2.6-2Z"/><path id="_89717272" data-name=" 89717272" class="cls-6" d="M71.42,73.75l.18.08-3.29-2.28v0l-.27.57h0L61.25,86.42a.31.31,0,0,0,0,.1,1.88,1.88,0,0,0,3.39,1.61.36.36,0,0,0,0-.09Z"/><path id="_89717200" data-name=" 89717200" class="cls-6" d="M61.08,57,60.92,57h0l-1.46-.51L58,55.94h0l-.16-.06h0l-1.64-.57h0a1.53,1.53,0,0,0-1,2.89h0l1.63.58,3.23,1.14,1.64.58h0a1.53,1.53,0,0,0,1-2.89h0L61.08,57Z"/><path id="_89717128" data-name=" 89717128" class="cls-6" d="M74.18,55.82l-.17,0h0l-1.52-.29L71,55.21h0l-.17,0h0l-1.7-.33h0a1.53,1.53,0,0,1,.58-3h0l1.7.33,3.37.65,1.7.33h0a1.53,1.53,0,0,1-.58,3h0l-1.7-.33Z"/><path id="_89717056" data-name=" 89717056" class="cls-6" d="M70.55,73.75l-.18.08,3.29-2.28,0,0,.27.57h0l6.79,14.28,0,.1a1.88,1.88,0,0,1-3.4,1.61.36.36,0,0,0,0-.09Z"/><path id="_89716936" data-name=" 89716936" class="cls-6" d="M49.31,66.4l6.07,21.66h0a.81.81,0,0,1-.72,1.1,1.38,1.38,0,0,1-1.47-.71h0c-2.15-7.72-4-14.35-6.15-22Z"/><path id="_89716864" data-name=" 89716864" class="cls-6" d="M27.11,66.4,21.05,88.06h0a.81.81,0,0,0,.71,1.1,1.39,1.39,0,0,0,1.48-.71h0c2.15-7.72,4-14.35,6.15-22Z"/><line class="cls-7" x1="31.01" y1="71.55" x2="45.72" y2="71.55"/><line class="cls-7" x1="28.95" y1="77.8" x2="47.01" y2="77.8"/><line class="cls-7" x1="27.32" y1="84.15" x2="48.97" y2="84.15"/></g><g id="wrong"><path class="cls-8" d="M85.83,2A18.17,18.17,0,1,0,104,20.17,18.19,18.19,0,0,0,85.83,2Z"/><path class="cls-9" d="M92.56,24.29a1.49,1.49,0,0,1,0,2.12,1.47,1.47,0,0,1-1.06.44,1.45,1.45,0,0,1-1.06-.44L85.92,21.9l-4.51,4.51a1.45,1.45,0,0,1-1.06.44,1.47,1.47,0,0,1-1.06-.44,1.49,1.49,0,0,1,0-2.12l4.51-4.51-4.51-4.51a1.5,1.5,0,1,1,2.12-2.13l4.51,4.52,4.52-4.52a1.5,1.5,0,0,1,2.12,2.13l-4.51,4.51Z"/></g></svg>