<svg xmlns="http://www.w3.org/2000/svg" viewBox="0 0 106 108.98"><defs><style>.cls-1,.cls-2{fill:#d83431;}.cls-2,.cls-6{stroke:#fff;stroke-miterlimit:10;}.cls-2{stroke-width:4px;}.cls-3{fill:#fafafa;}.cls-4{fill:#fff;fill-rule:evenodd;}.cls-5{fill:#ffd83b;}.cls-6{fill:none;stroke-linecap:round;stroke-width:2px;}</style></defs><title>dont-10</title><g id="dont-bg"><path class="cls-1" d="M50,109h0A50,50,0,1,0,0,59a50,50,0,0,0,50,50"/></g><g id="wrong"><path class="cls-2" d="M85.83,2A18.17,18.17,0,1,0,104,20.17,18.19,18.19,0,0,0,85.83,2Z"/><path class="cls-3" d="M92.56,24.29a1.49,1.49,0,0,1,0,2.12,1.47,1.47,0,0,1-1.06.44,1.45,1.45,0,0,1-1.06-.44L85.92,21.9l-4.51,4.51a1.45,1.45,0,0,1-1.06.44,1.47,1.47,0,0,1-1.06-.44,1.49,1.49,0,0,1,0-2.12l4.51-4.51-4.51-4.51a1.5,1.5,0,1,1,2.12-2.13l4.51,4.52,4.52-4.52a1.5,1.5,0,0,1,2.12,2.13l-4.51,4.51Z"/></g><g id="security"><path id="_88232184" data-name=" 88232184" class="cls-4" d="M15.33,27.56H63.27a1,1,0,0,1,1,1h0a1,1,0,0,1-1,1H15.33a1,1,0,0,1-1-1h0A1,1,0,0,1,15.33,27.56Z"/><path id="_88232640" data-name=" 88232640" class="cls-4" d="M62.58,58.06l-.09.14h0l-.81,1.32-.82,1.32h0l-.09.15h0l-.91,1.49h0a1.54,1.54,0,0,1-2.62-1.61h0l.91-1.48L60,56.45,60.87,55h0a1.54,1.54,0,0,1,2.62,1.61h0l-.91,1.48Z"/><path id="_88232568" data-name=" 88232568" class="cls-4" d="M65.39,38.48a4.57,4.57,0,1,1-6.25-1.67A4.58,4.58,0,0,1,65.39,38.48Z"/><path id="_88232496" data-name=" 88232496" class="cls-4" d="M43,60.48c-.11.08,2.75-1.44,3.39-1.78l0,0-.39-.5h0L40.38,50.9l-.06-.08c-1.49-1.93-4.46.39-3,2.3l.06.07L43,60.48Z"/><path id="_88232424" data-name=" 88232424" class="cls-4" d="M53.72,50.08l.16,0h0l1.47-.48,1.48-.48h0L57,49h0l1.66-.53h0a1.54,1.54,0,0,0-.95-2.92h0L56,46.09l-3.27,1.06-1.65.54h0a1.53,1.53,0,0,0,.94,2.92h0l1.66-.53Z"/><path id="_88232352" data-name=" 88232352" class="cls-4" d="M51.7,46.82l-.1-.13h0l-1-1.22-1-1.21h0l-.1-.13h0l-1.09-1.37h0a1.54,1.54,0,0,0-2.41,1.91h0L47.16,46l2.13,2.69,1.08,1.37h0a1.54,1.54,0,0,0,2.16.23,1.52,1.52,0,0,0,.25-2.14h0L51.7,46.82Z"/><path id="_88232256" data-name=" 88232256" class="cls-4" d="M60.15,54.6l0-.15h0L59.59,53l-.51-1.46h0l0-.16h0l-.57-1.65h0a1.54,1.54,0,0,1,2.91-1h0l.57,1.64,1.12,3.25.57,1.64h0a1.54,1.54,0,0,1-2.9,1h0l-.58-1.65Z"/><path id="_88231824" data-name=" 88231824" class="cls-4" d="M38,53.73c0,.14,1-2.94,1.21-3.62h0L38.51,50h0L29.6,48.67l-.11,0a1.89,1.89,0,0,0-.56,3.73H29L38,53.73Z"/><path id="_88231680" data-name=" 88231680" class="cls-4" d="M45.84,62.33A30.59,30.59,0,0,0,60.85,50a1.33,1.33,0,0,0,.09-2.09l-.39-.48L60,46.72l-.39-.49c-.55-.66-1.51-1.19-2.07-.32a31.74,31.74,0,0,1-14,11.52l0,0-.61,3.6s2.13,2.05,3,1.28Z"/><path id="_88231536" data-name=" 88231536" class="cls-4" d="M42.94,60.41c-.12-.08,2.82,1.28,3.48,1.59l0,0-.36.52h0l-9,13.06-.06.09a1.88,1.88,0,0,1-3.1-2.14.35.35,0,0,1,0-.08Z"/><polygon class="cls-5" points="56.07 43.73 52.86 38.77 56.08 37.82 48.71 30.94 51.92 35.9 48.71 36.86 56.07 43.73"/><polygon class="cls-5" points="56.08 19.86 52.86 18.9 56.07 13.94 48.71 20.82 51.92 21.77 48.71 26.73 56.08 19.86"/><polygon class="cls-5" points="44.08 36.86 40.86 35.9 44.07 30.94 36.71 37.82 39.92 38.77 36.71 43.73 44.08 36.86"/><polygon class="cls-5" points="44.07 26.73 40.86 21.77 44.08 20.82 36.71 13.94 39.92 18.9 36.71 19.86 44.07 26.73"/><line class="cls-6" x1="11" y1="78.98" x2="91" y2="78.98"/><rect class="cls-6" x="72" y="71.98" width="14" height="7" rx="3.5"/><rect class="cls-6" x="14" y="71.98" width="14" height="7" rx="3.5"/><path class="cls-6" d="M52,105.94V93.5A3.53,3.53,0,0,1,55.52,90h21A3.53,3.53,0,0,1,80,93.5v1.8"/><path class="cls-6" d="M48,105.94V93.5A3.53,3.53,0,0,0,44.48,90h-21A3.53,3.53,0,0,0,20,93.5v1.8"/></g></svg>