<svg xmlns="http://www.w3.org/2000/svg" viewBox="0 0 106 108.98"><defs><style>.cls-1,.cls-2,.cls-6{fill:#d83431;}.cls-2,.cls-5{stroke:#fff;}.cls-2,.cls-7{stroke-miterlimit:10;}.cls-2{stroke-width:4px;}.cls-3{fill:#fafafa;}.cls-4{fill:#fff;}.cls-4,.cls-6{fill-rule:evenodd;}.cls-5,.cls-7{fill:none;}.cls-5{stroke-width:1.78px;}.cls-7{stroke:#d83431;stroke-linecap:round;stroke-width:5px;}</style></defs><title>dont-9</title><g id="dont-bg"><path class="cls-1" d="M50,109h0A50,50,0,1,0,0,59a50,50,0,0,0,50,50"/></g><g id="wrong"><path class="cls-2" d="M85.83,2A18.17,18.17,0,1,0,104,20.17,18.19,18.19,0,0,0,85.83,2Z"/><path class="cls-3" d="M92.56,24.29a1.49,1.49,0,0,1,0,2.12,1.47,1.47,0,0,1-1.06.44,1.45,1.45,0,0,1-1.06-.44L85.92,21.9l-4.51,4.51a1.45,1.45,0,0,1-1.06.44,1.47,1.47,0,0,1-1.06-.44,1.49,1.49,0,0,1,0-2.12l4.51-4.51-4.51-4.51a1.5,1.5,0,1,1,2.12-2.13l4.51,4.52,4.52-4.52a1.5,1.5,0,0,1,2.12,2.13l-4.51,4.51Z"/></g><g id="doors"><path id="_89215896" data-name=" 89215896" class="cls-4" d="M26.76,30.69H60a6,6,0,0,1,6,6V83.88a6,6,0,0,1-6,6H26.76a6,6,0,0,1-6-6V36.69A6,6,0,0,1,26.76,30.69Zm.29,2.6H59.7a4,4,0,0,1,4,4v46a4,4,0,0,1-4,4H27.05a4,4,0,0,1-4-4V37.31A4,4,0,0,1,27.05,33.29Z"/><line id="_89215824" data-name=" 89215824" class="cls-5" x1="43.38" y1="30.76" x2="43.38" y2="89.81"/><path id="_89215608" data-name=" 89215608" class="cls-6" d="M41.4,50.61c.32-1.32,1.53-2,2.26-1.59L49,51.75l.2,9.75H43c-2-.62-2.29-3.94-3.25-5.92l.58-2.2,1-2.77Z"/><line class="cls-7" x1="63" y1="90.98" x2="54" y2="76.98"/><path id="_89215536" data-name=" 89215536" class="cls-4" d="M49.92,57l.15.07h0l1.38.64,1.38.65h0l.15.07h0l1.55.73h0a1.51,1.51,0,0,0,1.28-2.74h0l-1.55-.73-3-1.43-1.55-.73h0l-.1,0-.9-.42-3-1.44-1.55-.72h0a1.51,1.51,0,0,0-1.29,2.73h0l1.55.73h0l.15.07h0l1.38.65,1.38.65h0l.15.07h0l1.55.72h0l.1,0,.89.42Z"/><path id="_89215464" data-name=" 89215464" class="cls-4" d="M60.37,47.33a4.49,4.49,0,1,1-5.8,2.6A4.48,4.48,0,0,1,60.37,47.33Z"/><line class="cls-7" x1="44" y1="91.98" x2="50" y2="79.98"/><path id="_89215392" data-name=" 89215392" class="cls-4" d="M55.11,77.08l3.78-18.7c.21-1-.4-1.48-1.22-1.65l-.6-.12-.89-.18-.6-.12c-.83-.17-1.57,0-1.78,1L50,75c-.85,2.18,1,1,2,2.94,0,0,2.9.24,3.09-.9Z"/><path id="_89215320" data-name=" 89215320" class="cls-4" d="M53.09,77.16l.18.08L50,75v0l-.26.57h0L43.18,89.73a.47.47,0,0,0,0,.1,1.85,1.85,0,0,0,3.36,1.56l0-.09,6.57-14.14Z"/><g id="_89215248" data-name=" 89215248"><path class="cls-4" d="M52,78.32a1,1,0,0,1-.17.1l2.93-2.65,0,0,.33.52h0l8.43,13.1.06.09a1.85,1.85,0,0,1-3.11,2l-.05-.08L52,78.32Z"/></g><path id="_89215176" data-name=" 89215176" class="cls-4" d="M51.14,59.71h5a1.49,1.49,0,0,0,0-3H43.37a1.49,1.49,0,0,0,0,3h7.77Z"/></g></svg>