<svg xmlns="http://www.w3.org/2000/svg" viewBox="0 0 106 108.98"><defs><style>.cls-1{fill:#00ae5a;}.cls-2,.cls-3{fill:#d83431;}.cls-3,.cls-6,.cls-7{stroke:#fff;}.cls-3{stroke-miterlimit:10;stroke-width:4px;}.cls-4{fill:#fafafa;}.cls-5,.cls-7{fill:#fff;fill-rule:evenodd;}.cls-6{fill:none;}.cls-7{stroke-width:0.01px;}</style></defs><title>dont-3</title><g id="do-bg"><path class="cls-1" d="M50,109h0A50,50,0,1,0,0,59a50,50,0,0,0,50,50"/></g><g id="dont-bg"><path class="cls-2" d="M50,109h0A50,50,0,1,0,0,59a50,50,0,0,0,50,50"/></g><g id="wrong"><path class="cls-3" d="M85.83,2A18.17,18.17,0,1,0,104,20.17,18.19,18.19,0,0,0,85.83,2Z"/><path class="cls-4" d="M92.56,24.29a1.49,1.49,0,0,1,0,2.12,1.47,1.47,0,0,1-1.06.44,1.45,1.45,0,0,1-1.06-.44L85.92,21.9l-4.51,4.51a1.45,1.45,0,0,1-1.06.44,1.47,1.47,0,0,1-1.06-.44,1.49,1.49,0,0,1,0-2.12l4.51-4.51-4.51-4.51a1.5,1.5,0,1,1,2.12-2.13l4.51,4.52,4.52-4.52a1.5,1.5,0,0,1,2.12,2.13l-4.51,4.51Z"/></g><g id="inflammable"><path id="_88925336" data-name=" 88925336" class="cls-5" d="M14.05,62.81c.92,6.55,4.63,9.84,5.17,10.12-.88-.62-4.87-9.56-.91-16.87-1,6.69,3.25,12.06,5.41,12.49C22,65.46,18.51,60.35,22.64,52c.26,5.28,3.49,8.41,5.44,8.61-3.53-6.92,2-10.4,3.74-15.09,0,7.76-3.91,11.13-.38,18-2-.19-6.49.2-8.35-4.26.19,6.08,4.55,10.55,5.9,11.63-4.31,1.36-7.64.56-8.95-1.86,1.17,4.17,2.15,5.83,4.41,7-.95.87-5.56.81-7.87-2.55,2.8,8.55,9.58,11.21,15.58,12.63-13.9,1.27-19.86-13.6-18.11-23.25Z"/><polygon id="_88925264" data-name=" 88925264" class="cls-5" points="31.8 43.35 32.52 43.35 32.52 86.06 31.8 86.06 31.8 43.35"/><path id="_88925192" data-name=" 88925192" class="cls-5" d="M57,69a2.13,2.13,0,0,1,.5,2.29l-3.68,9a1,1,0,0,1-1.62.45l-3.82-3.33a2.16,2.16,0,0,1-.5-2.29l3.68-9a1,1,0,0,1,1.62-.45L38.83,53.1a1.23,1.23,0,0,1-.12-1.73l2.18-2.51a1.23,1.23,0,0,1,1.73-.12L59,63v6.56a1.22,1.22,0,0,1-1.42-.13L57,69Z"/><path id="_88925120" data-name=" 88925120" class="cls-6" d="M50.43,62l3.24,2.82a.91.91,0,0,1,.08,1.28l-1.76,2a.92.92,0,0,1-1.29.09L47.47,65.4a.92.92,0,0,1-.09-1.29l1.76-2A.92.92,0,0,1,50.43,62Z"/><polygon id="_88925024" data-name=" 88925024" class="cls-5" points="58.41 43.35 59.13 43.35 59.13 86.06 58.41 86.06 58.41 43.35"/><path id="_88924928" data-name=" 88924928" class="cls-7" d="M65.29,61.9h4.29A7.61,7.61,0,0,1,74,55.49c.37-1.43.73-2.87,1.09-4.3l2.18,3.72,1.2-2.06,1.67-2.93,1.91,7.21h0c.15.16.29.32.43.49h0l3,2.9V73.71l-6.39,4.67-6-8.29h-7.9a1.43,1.43,0,0,1-1.43-1.42v-5a1.19,1.19,0,0,1-.92-1.17,1.17,1.17,0,0,1,1.14-1.19,1.14,1.14,0,0,1,1,.56l.24,0Zm11-2.33a1.64,1.64,0,1,1-1.64,1.64A1.65,1.65,0,0,1,76.26,59.57ZM72,64.47v.11a3.32,3.32,0,0,1-6.63,0v-.11h1v.11a2.33,2.33,0,0,0,4.65,0,.37.37,0,0,0,0-.11Z"/><polygon id="_88924856" data-name=" 88924856" class="cls-5" points="85.01 42.8 85.73 42.8 85.73 85.5 85.01 85.5 85.01 42.8"/><polygon id="_88924784" data-name=" 88924784" class="cls-5" points="80.31 80.42 85.73 76.61 85.01 85.5 80.31 80.42"/></g></svg>