<svg xmlns="http://www.w3.org/2000/svg" viewBox="0 0 106 108.98"><defs><style>.cls-1{fill:#00ae5a;}.cls-2,.cls-3{fill:#d83431;}.cls-3{stroke:#fff;stroke-miterlimit:10;stroke-width:4px;}.cls-4{fill:#fafafa;}.cls-5,.cls-6{fill:#fff;}.cls-5{fill-rule:evenodd;}</style></defs><title>dont-7</title><g id="do-bg"><path class="cls-1" d="M50,109h0A50,50,0,1,0,0,59a50,50,0,0,0,50,50"/></g><g id="dont-bg"><path class="cls-2" d="M50,109h0A50,50,0,1,0,0,59a50,50,0,0,0,50,50"/></g><g id="wrong"><path class="cls-3" d="M85.83,2A18.17,18.17,0,1,0,104,20.17,18.19,18.19,0,0,0,85.83,2Z"/><path class="cls-4" d="M92.56,24.29a1.49,1.49,0,0,1,0,2.12,1.47,1.47,0,0,1-1.06.44,1.45,1.45,0,0,1-1.06-.44L85.92,21.9l-4.51,4.51a1.45,1.45,0,0,1-1.06.44,1.47,1.47,0,0,1-1.06-.44,1.49,1.49,0,0,1,0-2.12l4.51-4.51-4.51-4.51a1.5,1.5,0,1,1,2.12-2.13l4.51,4.52,4.52-4.52a1.5,1.5,0,0,1,2.12,2.13l-4.51,4.51Z"/></g><g id="misbehave"><path id="_88924376" data-name=" 88924376" class="cls-5" d="M44.87,38h8.86c2.13,0,5,1.28,3.88,6.66l-5,24.79c-.15.76-1,1.35-3.13,1.39-2.4,0-3.45-.67-3.59-1.39L41,44.64C40,39.58,42.73,38,44.87,38Z"/><circle id="_88924304" data-name=" 88924304" class="cls-6" cx="49.43" cy="77.42" r="4.43"/></g></svg>