<svg xmlns="http://www.w3.org/2000/svg" viewBox="0 0 100 100"><defs><style>.cls-1{fill:#064694;}.cls-2{fill:none;stroke:#fff;stroke-miterlimit:10;stroke-width:6.16px;}.cls-3{fill:#fff;}</style></defs><title>elevator</title><g id="bg"><path class="cls-1" d="M50,100h0A50,50,0,1,0,0,50a50,50,0,0,0,50,50"/></g><g id="elevator"><rect class="cls-2" x="24.57" y="24.57" width="50.87" height="50.86" rx="10.52"/><path class="cls-3" d="M43.51,36.46V53.3a1.9,1.9,0,1,1-3.79,0V36.46a1.9,1.9,0,1,1,3.79,0"/><path class="cls-3" d="M52.5,42.84a1.57,1.57,0,0,1-2.76,1l-8.13-9.25-8.12,9.25a1.58,1.58,0,0,1-2.38-2.08l9.32-10.6a1.53,1.53,0,0,1,1.18-.54,1.55,1.55,0,0,1,1.19.54l9.31,10.6a1.58,1.58,0,0,1,.39,1"/><path class="cls-3" d="M57,63.16V46.32a1.9,1.9,0,1,1,3.79,0V63.16a1.9,1.9,0,1,1-3.79,0"/><path class="cls-3" d="M48,56.77a1.57,1.57,0,0,1,2.76-1L58.9,65,67,55.73a1.58,1.58,0,1,1,2.37,2.08l-9.31,10.6a1.58,1.58,0,0,1-2.38,0L48.4,57.81a1.58,1.58,0,0,1-.39-1"/></g></svg>