<svg xmlns="http://www.w3.org/2000/svg" viewBox="0 0 100 100"><defs><style>.cls-1{fill:#064694;}.cls-2{fill:none;stroke:#fff;stroke-miterlimit:10;stroke-width:5.72px;}</style></defs><title>escalator-01</title><g id="bg"><path class="cls-1" d="M50,100h0A50,50,0,1,0,0,50a50,50,0,0,0,50,50" transform="translate(0 0)"/></g><g id="escalator"><path class="cls-2" d="M73.09,30.12l-9.67.23-.13,0a6.2,6.2,0,0,0-.74-.08,8.46,8.46,0,0,0-4.71,1.42h0a8.8,8.8,0,0,0-1.72,1.56L34.6,52.73H26.91a8.58,8.58,0,0,0,0,17.15h8.57a8.45,8.45,0,0,0,5-1.65h0l.16-.15a7.55,7.55,0,0,0,1.23-1.17L62.55,47.46l10.54-.19a8.58,8.58,0,0,0,0-17.15Z" transform="translate(0 0)"/></g></svg>