<svg xmlns="http://www.w3.org/2000/svg" viewBox="0 0 100 100"><defs><style>.cls-1{fill:#064694;}.cls-2{fill:#fff;}</style></defs><title>first-aid</title><g id="bg"><path class="cls-1" d="M50,100h0A50,50,0,1,0,0,50a50,50,0,0,0,50,50"/></g><g id="first-aid"><path class="cls-2" d="M71.1,30.76H62.24V29A5.25,5.25,0,0,0,57,23.77H43A5.25,5.25,0,0,0,37.76,29v1.75H28.9a8.75,8.75,0,0,0-8.75,8.75v28a8.75,8.75,0,0,0,8.75,8.74H71.1a8.75,8.75,0,0,0,8.75-8.74v-28A8.75,8.75,0,0,0,71.1,30.76ZM41.26,29A1.75,1.75,0,0,1,43,27.26H57A1.75,1.75,0,0,1,58.74,29v1.75H41.26ZM76.35,67.49a5.26,5.26,0,0,1-5.25,5.25H28.9a5.26,5.26,0,0,1-5.25-5.25v-28a5.25,5.25,0,0,1,5.25-5.25H71.1a5.25,5.25,0,0,1,5.25,5.25Z"/><path class="cls-2" d="M53.5,51.75H51.75V50a1.75,1.75,0,0,0-3.5,0v1.75H46.5a1.75,1.75,0,0,0,0,3.5h1.75V57a1.75,1.75,0,0,0,3.5,0V55.25H53.5a1.75,1.75,0,0,0,0-3.5Z"/><path class="cls-2" d="M50,41.26A12.24,12.24,0,1,0,62.24,53.5,12.25,12.25,0,0,0,50,41.26Zm0,21a8.75,8.75,0,1,1,8.74-8.74A8.75,8.75,0,0,1,50,62.24Z"/></g></svg>