<svg xmlns="http://www.w3.org/2000/svg" viewBox="0 0 100 100"><defs><style>.cls-1{fill:#064694;}.cls-2{fill:#fff;}</style></defs><title>info</title><g id="bg"><path class="cls-1" d="M50,100h0A50,50,0,1,0,0,50a50,50,0,0,0,50,50"/></g><g id="information"><path class="cls-2" d="M56.83,29.14a6,6,0,0,1-2,4.54,7,7,0,0,1-9.64,0,6.14,6.14,0,0,1,0-9.09,7.06,7.06,0,0,1,9.64,0,6,6,0,0,1,2,4.55M50,77.31h0c-3.75,0-6.79-2.43-6.79-5.43V48.51c0-3,3-5.43,6.79-5.43s6.79,2.44,6.79,5.43V71.88c0,3-3,5.43-6.79,5.43"/></g></svg>