<svg xmlns="http://www.w3.org/2000/svg" viewBox="0 0 106 108.98"><defs><style>.cls-1,.cls-4{fill:#d83431;}.cls-2,.cls-3{fill:#fff;}.cls-2{fill-rule:evenodd;}.cls-4{stroke:#fff;stroke-miterlimit:10;stroke-width:4px;}.cls-5{fill:#fafafa;}</style></defs><title>littering</title><g id="dont-bg"><path class="cls-1" d="M50,109h0A50,50,0,1,0,0,59a50,50,0,0,0,50,50"/></g><g id="littering"><path id="_89716528" data-name=" 89716528" class="cls-2" d="M55.72,32.53a5,5,0,1,0,5,5A5,5,0,0,0,55.72,32.53Z"/><path id="_89716456" data-name=" 89716456" class="cls-2" d="M56.05,83.62s0,.08,0,.12a2.08,2.08,0,0,0,4.16,0,.41.41,0,0,0,0-.11V48h.72v14.1h0a1.7,1.7,0,0,0,3.39,0h0v-16a1.93,1.93,0,0,0-1.72-2.07H48.85a1.92,1.92,0,0,0-1.72,2.07v7.63l-2.94,4.8c-.62.83-.92,2.11.07,2.71s1.91,0,2.7-1.41l3.51-6V48h.73V61.87h0V83.69a.66.66,0,0,0,0,.14,2.08,2.08,0,0,0,4.15,0v-.09h0V66.14h.71V83.62Z"/><circle id="_89716360" data-name=" 89716360" class="cls-3" cx="35.16" cy="71.93" r="2.16"/><circle id="_89716288" data-name=" 89716288" class="cls-3" cx="39.38" cy="65.45" r="0.46"/><circle id="_89716216" data-name=" 89716216" class="cls-3" cx="41.32" cy="70.65" r="0.77"/><circle id="_89716144" data-name=" 89716144" class="cls-3" cx="38.76" cy="79.14" r="0.77"/><circle id="_89716072" data-name=" 89716072" class="cls-3" cx="33.73" cy="81.39" r="0.46"/><circle id="_89716000" data-name=" 89716000" class="cls-3" cx="42.17" cy="84.02" r="1.83"/></g><g id="wrong"><path class="cls-4" d="M85.83,2A18.17,18.17,0,1,0,104,20.17,18.19,18.19,0,0,0,85.83,2Z"/><path class="cls-5" d="M92.56,24.29a1.49,1.49,0,0,1,0,2.12,1.47,1.47,0,0,1-1.06.44,1.45,1.45,0,0,1-1.06-.44L85.92,21.9l-4.51,4.51a1.45,1.45,0,0,1-1.06.44,1.47,1.47,0,0,1-1.06-.44,1.49,1.49,0,0,1,0-2.12l4.51-4.51-4.51-4.51a1.5,1.5,0,1,1,2.12-2.13l4.51,4.52,4.52-4.52a1.5,1.5,0,0,1,2.12,2.13l-4.51,4.51Z"/></g></svg>