<svg xmlns="http://www.w3.org/2000/svg" viewBox="0 0 100 100"><defs><style>.cls-1{fill:#064694;}.cls-2{fill:#fff;}</style></defs><title>lost-found</title><g id="bg"><path class="cls-1" d="M50,100h0A50,50,0,1,0,0,50a50,50,0,0,0,50,50"/></g><g id="lost-found"><path class="cls-2" d="M28.17,32.43h0a1.29,1.29,0,0,0-1.3,1.31,1.32,1.32,0,1,0,1.32-1.31Z"/><path class="cls-2" d="M78.86,44.75H76.75l3.37-11.43a1.31,1.31,0,0,0-2.42-1c-.5,1-2.66,1.93-5.4,1.93-3,0-5.25-1.39-5.25-2.63V23.76a5.25,5.25,0,0,0-10.49,0v1.31a1.31,1.31,0,1,0,2.62,0V23.76a2.63,2.63,0,0,1,5.25,0v7.87c0,1.24-2.24,2.63-5.25,2.63-2.73,0-4.89-1-5.4-1.93a1.31,1.31,0,0,0-2.42,1l3.37,11.43H50.34l-8.4-18.67a3.93,3.93,0,0,0-5.2-2l-12,5.38a3.94,3.94,0,0,0-2,5.2l4.52,10.06H21.14a1.31,1.31,0,0,0-1.31,1.31V69.68a11.81,11.81,0,0,0,11.8,11.8H68.37a11.81,11.81,0,0,0,11.8-11.8V46.06A1.31,1.31,0,0,0,78.86,44.75ZM67.05,35.56a10.41,10.41,0,0,0,5.25,1.32,12.87,12.87,0,0,0,4.24-.7L74,44.75h-7V35.56Zm-7.87,1.32a10.36,10.36,0,0,0,5.25-1.32v9.19h-7l-2.52-8.57A13,13,0,0,0,59.18,36.88Zm-34-3.26a1.3,1.3,0,0,1,.66-1.73l12-5.39a1.33,1.33,0,0,1,1,0,1.37,1.37,0,0,1,.73.69l7.91,17.59H30.2ZM77.55,69.68a9.19,9.19,0,0,1-9.18,9.18H31.63a9.19,9.19,0,0,1-9.18-9.18V47.38h55.1Z"/><path class="cls-2" d="M44.66,59.85a1.28,1.28,0,0,0,1.4-1.22,4,4,0,0,1,7.88.23c0,2.35-2,3.13-4,3.58l-.29.07a1.3,1.3,0,0,0-1,1.26v3.28a1.31,1.31,0,1,0,2.62,0V64.8c3.48-1,5.24-3,5.24-5.94a6.59,6.59,0,0,0-13.12-.4A1.31,1.31,0,0,0,44.66,59.85Z"/><path class="cls-2" d="M49.08,71.38a1.31,1.31,0,1,0,1.84,0A1.32,1.32,0,0,0,49.08,71.38Z"/></g></svg>