<svg xmlns="http://www.w3.org/2000/svg" viewBox="0 0 100 100"><defs><style>.cls-1{fill:#064694;}.cls-2{fill:#fff;}.cls-3{fill:none;stroke:#fff;stroke-linejoin:round;stroke-width:3.66px;}</style></defs><title>security</title><g id="bg"><path class="cls-1" d="M50,100h0A50,50,0,1,0,0,50a50,50,0,0,0,50,50"/></g><g id="security"><path class="cls-2" d="M46.63,65.2a2.92,2.92,0,0,1,1-2.22,3.42,3.42,0,0,1,4.71,0,3,3,0,0,1,0,4.44,3.45,3.45,0,0,1-4.71,0,2.93,2.93,0,0,1-1-2.22M50,41.64h0c1.84,0,3.32,1.2,3.32,2.66V55.73c0,1.46-1.48,2.65-3.32,2.65s-3.32-1.19-3.32-2.65V44.3c0-1.46,1.49-2.66,3.32-2.66"/><path class="cls-3" d="M70.25,72.13H29.75c-3,0-4.95-2.6-3.61-4.82L50,27.87,73.86,67.31C75.2,69.53,73.25,72.13,70.25,72.13Z"/></g></svg>