<svg xmlns="http://www.w3.org/2000/svg" viewBox="0 0 100 100"><defs><style>.cls-1{fill:#064694;}.cls-2{fill:#fff;}</style></defs><title>shopping</title><g id="bg"><path class="cls-1" d="M50,100h0A50,50,0,1,0,0,50a50,50,0,0,0,50,50"/></g><g id="SHOPPING"><path class="cls-2" d="M65.85,62.58h-27a2.45,2.45,0,0,1-2.38-1.88L32,42a2.46,2.46,0,0,1,.45-2.09A2.5,2.5,0,0,1,34.34,39h38.4A2.45,2.45,0,0,1,75,42.28L68.15,61a2.46,2.46,0,0,1-2.3,1.61M40.74,57.67h23.4l5.08-13.8H37.45Z"/><path class="cls-2" d="M34.34,43.67a2.45,2.45,0,0,1-2.45-2.44c0-3.86-3.08-9.83-4.64-9.83a2.45,2.45,0,0,1,0-4.89c6.2,0,9.54,10.44,9.54,14.72a2.45,2.45,0,0,1-2.45,2.44"/><path class="cls-2" d="M56.51,68.59a4.91,4.91,0,1,0,4.91-4.91,4.9,4.9,0,0,0-4.91,4.91"/><path class="cls-2" d="M36.92,68.59a4.91,4.91,0,1,0,4.9-4.91,4.9,4.9,0,0,0-4.9,4.91"/></g></svg>