<svg xmlns="http://www.w3.org/2000/svg" viewBox="0 0 100 100"><defs><style>.cls-1{fill:#064694;}.cls-2{fill:#fff;}</style></defs><title>ticket-counter</title><g id="bg"><path class="cls-1" d="M50,100h0A50,50,0,1,0,0,50a50,50,0,0,0,50,50"/></g><g id="ticket_counter" data-name="ticket counter"><path class="cls-2" d="M80.84,46H60.14V38.69a10.13,10.13,0,0,0-4.74-8.58,7.57,7.57,0,1,0-10.8,0,10.13,10.13,0,0,0-4.74,8.58V46H19.16a1.92,1.92,0,1,0,0,3.84h2.19v31a1.92,1.92,0,0,0,1.92,1.92H76.73a1.92,1.92,0,0,0,1.92-1.92v-31h2.19a1.92,1.92,0,1,0,0-3.84ZM46.27,24.81A3.73,3.73,0,1,1,50,28.55,3.74,3.74,0,0,1,46.27,24.81ZM43.7,38.69a6.3,6.3,0,0,1,12.6,0V46H43.7V38.69ZM74.81,78.92H25.19V49.86H74.81V78.92Z"/><g id="logo"><path class="cls-2" d="M54.53,70.58l-7.05-4.06V64.74l-1.95,1.13h0v1.77l1.95,1.13-3.13,1.81V68.33l-2-1.13,7-4.07L51,64V61.78l-1.55-.9-2,1.13h0V58.39l2,1.12,2-1.13h0v8.14l-1.53.89,2,1.13,1.54-.9V65.39l3.13,1.81-2,1.12Zm-1.18-7.45V55l-3.91,2.26L45.53,55v8.13l-7,4.07,3.9,2.25V74l7-4.07L56.48,74V69.45l3.91-2.25Z"/></g></g></svg>