<svg xmlns="http://www.w3.org/2000/svg" viewBox="0 0 100 100"><defs><style>.cls-1{fill:#064694;}.cls-2{fill:#fff;}</style></defs><title>washroom</title><g id="bg"><path class="cls-1" d="M50,100h0A50,50,0,1,0,0,50a50,50,0,0,0,50,50"/></g><g id="washroom"><path class="cls-2" d="M39.64,40.59,35,37.94a6.38,6.38,0,1,0-7.68,0l-4.64,2.65a2.8,2.8,0,0,0-1.39,2.46l0,1.5a1.12,1.12,0,0,0,1.14,1.1,1.13,1.13,0,0,0,1.1-1.15l0-1.49a.54.54,0,0,1,.27-.47l5.66-3.24a.5.5,0,0,1,.27-.07H32.6a.47.47,0,0,1,.28.09l0,0,5.6,3.2a.55.55,0,0,1,.27.52.25.25,0,0,0,0,.08l-.4,17a.52.52,0,0,1-.35.48h0l-3.21,1.2a1.12,1.12,0,0,0-.72,1l0,7.89a.52.52,0,0,1-.53.52H28.8a.53.53,0,0,1-.53-.53c0-2.28,0-4.78,0-7.89a1.11,1.11,0,0,0-.73-1l-3.24-1.21a.55.55,0,0,1-.35-.49v0l-.15-6.65a1.13,1.13,0,0,0-1.15-1.1,1.12,1.12,0,0,0-1.09,1.15l.15,6.65a2.81,2.81,0,0,0,1.8,2.56l2.52.94c0,2.74,0,5,0,7.1a2.77,2.77,0,0,0,2.77,2.77h4.73a2.77,2.77,0,0,0,2.77-2.76l0-7.1,2.46-.92a2.77,2.77,0,0,0,1.85-2.56l.4-17A2.75,2.75,0,0,0,39.64,40.59ZM31.17,28.7A4.14,4.14,0,1,1,27,32.84,4.15,4.15,0,0,1,31.17,28.7Z"/><path class="cls-2" d="M78.62,58.8l-.32-1.31A1.11,1.11,0,0,0,77,56.67,1.12,1.12,0,0,0,76.12,58l.32,1.31a.51.51,0,0,1-.36.62l0,0-5.44,1.88a1.13,1.13,0,0,0-.76,1.06v7.86a.52.52,0,0,1-.53.52H64.56a.55.55,0,0,1-.39-.17.52.52,0,0,1-.14-.41s0-.06,0-.1l0-7.71a1.12,1.12,0,0,0-.75-1.06L57.75,60a.52.52,0,0,1-.33-.62l4.14-17.14a.51.51,0,0,1,.2-.3l3.42-2.56a.47.47,0,0,1,.31-.1h2.87a.53.53,0,0,1,.33.12l0,0,3.37,2.51a.61.61,0,0,1,.21.34s0,.05,0,.08l1.7,7a1.12,1.12,0,1,0,2.18-.53l-1.69-7a2.75,2.75,0,0,0-1.07-1.72L70.66,38a6.39,6.39,0,1,0-7.47,0l-2.77,2.08a2.76,2.76,0,0,0-1,1.57L55.24,58.8A2.75,2.75,0,0,0,57,62.06l4.76,1.65v6.88a2.8,2.8,0,0,0,.73,2.06,2.77,2.77,0,0,0,2,.89h4.73a2.78,2.78,0,0,0,2.77-2.77l0-7.06,4.66-1.61A2.76,2.76,0,0,0,78.62,58.8ZM66.93,28.7a4.14,4.14,0,1,1-4.14,4.14A4.15,4.15,0,0,1,66.93,28.7Z"/><path class="cls-2" d="M48.23,21.3a3.37,3.37,0,0,0-3.36,3.36V75.34a3.37,3.37,0,0,0,6.73,0V24.66A3.37,3.37,0,0,0,48.23,21.3Zm1.13,54a1.13,1.13,0,0,1-2.25,0V24.66a1.13,1.13,0,0,1,2.25,0Z"/><path class="cls-2" d="M22.56,50.13A1.12,1.12,0,0,0,23.68,49h0a1.12,1.12,0,1,0-1.12,1.12Z"/><path class="cls-2" d="M75.85,52.32a1.12,1.12,0,1,0,1.39.77h0A1.12,1.12,0,0,0,75.85,52.32Z"/></g></svg>